<svg preserveAspectRatio="xMidYMid meet" width="63" height="63" overflow="visible" style="display: block;" viewBox="0 0 65 65" fill="none" xmlns="http://www.w3.org/2000/svg">
<g id="Group 3878">
<circle id="Ellipse 264" cx="32.5" cy="32.5" r="32" fill="var(--fill-0, white)" fill-opacity="0.5" stroke="var(--stroke-0, white)"/>
<g id="Vector">
<mask id="path-2-inside-1_303_112" fill="white">
<path d="M32.8421 43.8333C32.1053 43.0556 31.7368 42.1111 31.7368 41C31.7368 39.8889 32.1053 38.9444 32.8421 38.1667C33.5789 37.3889 34.4737 37 35.5263 37C36.5789 37 37.4737 37.3889 38.2105 38.1667C38.9474 38.9444 39.3158 39.8889 39.3158 41C39.3158 42.1111 38.9474 43.0556 38.2105 43.8333C37.4737 44.6111 36.5789 45 35.5263 45C34.4737 45 33.5789 44.6111 32.8421 43.8333ZM36.4269 41.9507C36.6686 41.6947 36.7895 41.3778 36.7895 41C36.7895 40.6222 36.6682 40.3058 36.4257 40.0507C36.1832 39.7956 35.8834 39.6676 35.5263 39.6667C35.1693 39.6658 34.8695 39.7938 34.6269 40.0507C34.3844 40.3076 34.2632 40.624 34.2632 41C34.2632 41.376 34.3844 41.6929 34.6269 41.9507C34.8695 42.2084 35.1693 42.336 35.5263 42.3333C35.8834 42.3307 36.1836 42.204 36.4269 41.9507ZM33.1263 33.5333C31.7789 32.1111 31.1053 30.3778 31.1053 28.3333C31.1053 26.2889 31.7789 24.5556 33.1263 23.1333C34.4737 21.7111 36.1158 21 38.0526 21C39.9895 21 41.6316 21.7111 42.9789 23.1333C44.3263 24.5556 45 26.2889 45 28.3333C45 30.3778 44.3263 32.1111 42.9789 33.5333C41.6316 34.9556 39.9895 35.6667 38.0526 35.6667C36.1158 35.6667 34.4737 34.9556 33.1263 33.5333ZM41.1954 31.6507C42.0476 30.7502 42.4737 29.6444 42.4737 28.3333C42.4737 27.0222 42.0476 25.9164 41.1954 25.016C40.3432 24.1156 39.2956 23.6658 38.0526 23.6667C36.8097 23.6676 35.7621 24.1178 34.9099 25.0173C34.0577 25.9169 33.6316 27.0222 33.6316 28.3333C33.6316 29.6444 34.0581 30.7502 34.9112 31.6507C35.7642 32.5511 36.8114 33.0009 38.0526 33C39.2939 32.9991 40.3415 32.5493 41.1954 31.6507ZM26.0526 41C24.6632 41 23.4737 40.4778 22.4842 39.4333C21.4947 38.3889 21 37.1333 21 35.6667C21 34.2 21.4947 32.9444 22.4842 31.9C23.4737 30.8556 24.6632 30.3333 26.0526 30.3333C27.4421 30.3333 28.6316 30.8556 29.6211 31.9C30.6105 32.9444 31.1053 34.2 31.1053 35.6667C31.1053 37.1333 30.6105 38.3889 29.6211 39.4333C28.6316 40.4778 27.4421 41 26.0526 41ZM27.8362 37.5493C28.3314 37.0284 28.5789 36.4009 28.5789 35.6667C28.5789 34.9324 28.3318 34.3049 27.8375 33.784C27.3432 33.2631 26.7482 33.0018 26.0526 33C25.3571 32.9982 24.7625 33.2596 24.2691 33.784C23.7756 34.3084 23.528 34.936 23.5263 35.6667C23.5246 36.3973 23.7722 37.0253 24.2691 37.5507C24.7659 38.076 25.3604 38.3369 26.0526 38.3333C26.7448 38.3298 27.3398 38.0689 27.8375 37.5507"/>
</mask>
<path d="M32.8421 43.8333C32.1053 43.0556 31.7368 42.1111 31.7368 41C31.7368 39.8889 32.1053 38.9444 32.8421 38.1667C33.5789 37.3889 34.4737 37 35.5263 37C36.5789 37 37.4737 37.3889 38.2105 38.1667C38.9474 38.9444 39.3158 39.8889 39.3158 41C39.3158 42.1111 38.9474 43.0556 38.2105 43.8333C37.4737 44.6111 36.5789 45 35.5263 45C34.4737 45 33.5789 44.6111 32.8421 43.8333ZM36.4269 41.9507C36.6686 41.6947 36.7895 41.3778 36.7895 41C36.7895 40.6222 36.6682 40.3058 36.4257 40.0507C36.1832 39.7956 35.8834 39.6676 35.5263 39.6667C35.1693 39.6658 34.8695 39.7938 34.6269 40.0507C34.3844 40.3076 34.2632 40.624 34.2632 41C34.2632 41.376 34.3844 41.6929 34.6269 41.9507C34.8695 42.2084 35.1693 42.336 35.5263 42.3333C35.8834 42.3307 36.1836 42.204 36.4269 41.9507ZM33.1263 33.5333C31.7789 32.1111 31.1053 30.3778 31.1053 28.3333C31.1053 26.2889 31.7789 24.5556 33.1263 23.1333C34.4737 21.7111 36.1158 21 38.0526 21C39.9895 21 41.6316 21.7111 42.9789 23.1333C44.3263 24.5556 45 26.2889 45 28.3333C45 30.3778 44.3263 32.1111 42.9789 33.5333C41.6316 34.9556 39.9895 35.6667 38.0526 35.6667C36.1158 35.6667 34.4737 34.9556 33.1263 33.5333ZM41.1954 31.6507C42.0476 30.7502 42.4737 29.6444 42.4737 28.3333C42.4737 27.0222 42.0476 25.9164 41.1954 25.016C40.3432 24.1156 39.2956 23.6658 38.0526 23.6667C36.8097 23.6676 35.7621 24.1178 34.9099 25.0173C34.0577 25.9169 33.6316 27.0222 33.6316 28.3333C33.6316 29.6444 34.0581 30.7502 34.9112 31.6507C35.7642 32.5511 36.8114 33.0009 38.0526 33C39.2939 32.9991 40.3415 32.5493 41.1954 31.6507ZM26.0526 41C24.6632 41 23.4737 40.4778 22.4842 39.4333C21.4947 38.3889 21 37.1333 21 35.6667C21 34.2 21.4947 32.9444 22.4842 31.9C23.4737 30.8556 24.6632 30.3333 26.0526 30.3333C27.4421 30.3333 28.6316 30.8556 29.6211 31.9C30.6105 32.9444 31.1053 34.2 31.1053 35.6667C31.1053 37.1333 30.6105 38.3889 29.6211 39.4333C28.6316 40.4778 27.4421 41 26.0526 41ZM27.8362 37.5493C28.3314 37.0284 28.5789 36.4009 28.5789 35.6667C28.5789 34.9324 28.3318 34.3049 27.8375 33.784C27.3432 33.2631 26.7482 33.0018 26.0526 33C25.3571 32.9982 24.7625 33.2596 24.2691 33.784C23.7756 34.3084 23.528 34.936 23.5263 35.6667C23.5246 36.3973 23.7722 37.0253 24.2691 37.5507C24.7659 38.076 25.3604 38.3369 26.0526 38.3333C26.7448 38.3298 27.3398 38.0689 27.8375 37.5507" fill="var(--fill-0, #1E3ED7)"/>
<path d="M36.4269 41.9507L36.7875 42.2971L36.7905 42.2939L36.4269 41.9507ZM41.1954 31.6507L41.5578 31.9951L41.5585 31.9944L41.1954 31.6507ZM32.8421 43.8333L33.2051 43.4895C32.5598 42.8083 32.2368 41.9884 32.2368 41H31.7368H31.2368C31.2368 42.2338 31.6508 43.3028 32.4791 44.1772L32.8421 43.8333ZM31.7368 41H32.2368C32.2368 40.0116 32.5598 39.1917 33.2051 38.5105L32.8421 38.1667L32.4791 37.8228C31.6508 38.6972 31.2368 39.7662 31.2368 41H31.7368ZM32.8421 38.1667L33.2051 38.5105C33.8494 37.8304 34.6137 37.5 35.5263 37.5V37V36.5C34.3336 36.5 33.3085 36.9474 32.4791 37.8228L32.8421 38.1667ZM35.5263 37V37.5C36.4389 37.5 37.2032 37.8304 37.8475 38.5105L38.2105 38.1667L38.5735 37.8228C37.7441 36.9474 36.719 36.5 35.5263 36.5V37ZM38.2105 38.1667L37.8475 38.5105C38.4929 39.1917 38.8158 40.0116 38.8158 41H39.3158H39.8158C39.8158 39.7662 39.4019 38.6972 38.5735 37.8228L38.2105 38.1667ZM39.3158 41H38.8158C38.8158 41.9884 38.4929 42.8083 37.8475 43.4895L38.2105 43.8333L38.5735 44.1772C39.4019 43.3028 39.8158 42.2338 39.8158 41H39.3158ZM38.2105 43.8333L37.8475 43.4895C37.2032 44.1696 36.4389 44.5 35.5263 44.5V45V45.5C36.719 45.5 37.7441 45.0526 38.5735 44.1772L38.2105 43.8333ZM35.5263 45V44.5C34.6137 44.5 33.8494 44.1696 33.2051 43.4895L32.8421 43.8333L32.4791 44.1772C33.3085 45.0526 34.3336 45.5 35.5263 45.5V45ZM36.4269 41.9507L36.7905 42.2939C37.1266 41.9379 37.2895 41.4952 37.2895 41H36.7895H36.2895C36.2895 41.2604 36.2107 41.4514 36.0634 41.6074L36.4269 41.9507ZM36.7895 41H37.2895C37.2895 40.5043 37.1258 40.0614 36.7881 39.7062L36.4257 40.0507L36.0633 40.3952C36.2106 40.5501 36.2895 40.7401 36.2895 41H36.7895ZM36.4257 40.0507L36.7881 39.7062C36.4499 39.3505 36.019 39.1679 35.5276 39.1667L35.5263 39.6667L35.5251 40.1667C35.7478 40.1672 35.9164 40.2406 36.0633 40.3952L36.4257 40.0507ZM35.5263 39.6667L35.5276 39.1667C35.0341 39.1654 34.6018 39.349 34.2634 39.7074L34.6269 40.0507L34.9905 40.3939C35.1371 40.2386 35.3044 40.1661 35.5251 40.1667L35.5263 39.6667ZM34.6269 40.0507L34.2634 39.7074C33.9272 40.0635 33.7632 40.5054 33.7632 41H34.2632H34.7632C34.7632 40.7426 34.8416 40.5516 34.9905 40.3939L34.6269 40.0507ZM34.2632 41H33.7632C33.7632 41.4946 33.9272 41.9366 34.2628 42.2933L34.6269 41.9507L34.9911 41.608C34.8416 41.4492 34.7632 41.2574 34.7632 41H34.2632ZM34.6269 41.9507L34.2628 42.2933C34.6016 42.6535 35.0352 42.837 35.53 42.8333L35.5263 42.3333L35.5226 41.8333C35.3033 41.835 35.1373 41.7634 34.9911 41.608L34.6269 41.9507ZM35.5263 42.3333L35.53 42.8333C36.018 42.8297 36.4481 42.6504 36.7875 42.2971L36.4269 41.9507L36.0664 41.6043C35.919 41.7577 35.7487 41.8317 35.5226 41.8333L35.5263 42.3333ZM33.1263 33.5333L33.4893 33.1895C32.2341 31.8645 31.6053 30.256 31.6053 28.3333H31.1053H30.6053C30.6053 30.4996 31.3238 32.3577 32.7633 33.8772L33.1263 33.5333ZM31.1053 28.3333H31.6053C31.6053 26.4107 32.2341 24.8022 33.4893 23.4772L33.1263 23.1333L32.7633 22.7895C31.3238 24.3089 30.6053 26.1671 30.6053 28.3333H31.1053ZM33.1263 23.1333L33.4893 23.4772C34.7435 22.1534 36.2549 21.5 38.0526 21.5V21V20.5C35.9767 20.5 34.2039 21.2689 32.7633 22.7895L33.1263 23.1333ZM38.0526 21V21.5C39.8504 21.5 41.3618 22.1534 42.616 23.4772L42.9789 23.1333L43.3419 22.7895C41.9014 21.2689 40.1285 20.5 38.0526 20.5V21ZM42.9789 23.1333L42.616 23.4772C43.8712 24.8022 44.5 26.4107 44.5 28.3333H45H45.5C45.5 26.1671 44.7814 24.3089 43.3419 22.7895L42.9789 23.1333ZM45 28.3333H44.5C44.5 30.256 43.8712 31.8645 42.616 33.1895L42.9789 33.5333L43.3419 33.8772C44.7814 32.3577 45.5 30.4996 45.5 28.3333H45ZM42.9789 33.5333L42.616 33.1895C41.3618 34.5133 39.8504 35.1667 38.0526 35.1667V35.6667V36.1667C40.1285 36.1667 41.9014 35.3978 43.3419 33.8772L42.9789 33.5333ZM38.0526 35.6667V35.1667C36.2549 35.1667 34.7435 34.5133 33.4893 33.1895L33.1263 33.5333L32.7633 33.8772C34.2039 35.3978 35.9767 36.1667 38.0526 36.1667V35.6667ZM41.1954 31.6507L41.5585 31.9944C42.504 30.9953 42.9737 29.7642 42.9737 28.3333H42.4737H41.9737C41.9737 29.5247 41.5911 30.5051 40.8322 31.307L41.1954 31.6507ZM42.4737 28.3333H42.9737C42.9737 26.9025 42.504 25.6713 41.5585 24.6723L41.1954 25.016L40.8322 25.3597C41.5911 26.1616 41.9737 27.142 41.9737 28.3333H42.4737ZM41.1954 25.016L41.5585 24.6723C40.6115 23.6717 39.4323 23.1657 38.0523 23.1667L38.0526 23.6667L38.053 24.1667C39.1588 24.1659 40.0748 24.5594 40.8322 25.3597L41.1954 25.016ZM38.0526 23.6667L38.0523 23.1667C36.6726 23.1677 35.4938 23.674 34.5469 24.6735L34.9099 25.0173L35.2729 25.3612C36.0304 24.5616 36.9467 24.1675 38.053 24.1667L38.0526 23.6667ZM34.9099 25.0173L34.5469 24.6735C33.6013 25.6717 33.1316 26.9025 33.1316 28.3333H33.6316H34.1316C34.1316 27.142 34.5141 26.1621 35.2729 25.3612L34.9099 25.0173ZM33.6316 28.3333H33.1316C33.1316 29.7643 33.6018 30.9955 34.5482 31.9945L34.9112 31.6507L35.2741 31.3068C34.5144 30.5049 34.1316 29.5246 34.1316 28.3333H33.6316ZM34.9112 31.6507L34.5482 31.9945C35.4958 32.9948 36.6744 33.501 38.053 33.5L38.0526 33L38.0523 32.5C36.9483 32.5008 36.0326 32.1074 35.2741 31.3068L34.9112 31.6507ZM38.0526 33L38.053 33.5C39.431 33.499 40.6095 32.9931 41.5578 31.9951L41.1954 31.6507L40.8329 31.3063C40.0735 32.1055 39.1568 32.4992 38.0523 32.5L38.0526 33ZM26.0526 41V40.5C24.8058 40.5 23.746 40.0382 22.8472 39.0895L22.4842 39.4333L22.1212 39.7772C23.2014 40.9173 24.5205 41.5 26.0526 41.5V41ZM22.4842 39.4333L22.8472 39.0895C21.9476 38.1399 21.5 37.0082 21.5 35.6667H21H20.5C20.5 37.2585 21.0419 38.6379 22.1212 39.7772L22.4842 39.4333ZM21 35.6667H21.5C21.5 34.3252 21.9476 33.1935 22.8472 32.2439L22.4842 31.9L22.1212 31.5561C21.0419 32.6954 20.5 34.0748 20.5 35.6667H21ZM22.4842 31.9L22.8472 32.2439C23.746 31.2951 24.8058 30.8333 26.0526 30.8333V30.3333V29.8333C24.5205 29.8333 23.2014 30.416 22.1212 31.5561L22.4842 31.9ZM26.0526 30.3333V30.8333C27.2994 30.8333 28.3593 31.2951 29.2581 32.2439L29.6211 31.9L29.984 31.5561C28.9039 30.416 27.5848 29.8333 26.0526 29.8333V30.3333ZM29.6211 31.9L29.2581 32.2439C30.1577 33.1935 30.6053 34.3252 30.6053 35.6667H31.1053H31.6053C31.6053 34.0748 31.0634 32.6954 29.984 31.5561L29.6211 31.9ZM31.1053 35.6667H30.6053C30.6053 37.0082 30.1577 38.1399 29.2581 39.0895L29.6211 39.4333L29.984 39.7772C31.0634 38.6379 31.6053 37.2585 31.6053 35.6667H31.1053ZM29.6211 39.4333L29.2581 39.0895C28.3593 40.0382 27.2994 40.5 26.0526 40.5V41V41.5C27.5848 41.5 28.9039 40.9173 29.984 39.7772L29.6211 39.4333ZM27.8362 37.5493L28.1986 37.8938C28.7842 37.2778 29.0789 36.526 29.0789 35.6667H28.5789H28.0789C28.0789 36.2757 27.8785 36.7791 27.4738 37.2048L27.8362 37.5493ZM28.5789 35.6667H29.0789C29.0789 34.8076 28.7848 34.0559 28.2002 33.4398L27.8375 33.784L27.4748 34.1282C27.8788 34.5539 28.0789 35.0573 28.0789 35.6667H28.5789ZM27.8375 33.784L28.2002 33.4398C27.6152 32.8234 26.8911 32.5021 26.0539 32.5L26.0526 33L26.0514 33.5C26.6053 33.5014 27.0711 33.7028 27.4748 34.1282L27.8375 33.784ZM26.0526 33L26.0539 32.5C25.2146 32.4979 24.4894 32.8202 23.9049 33.4414L24.2691 33.784L24.6332 34.1266C25.0356 33.6989 25.4995 33.4986 26.0514 33.5L26.0526 33ZM24.2691 33.784L23.9049 33.4414C23.323 34.0598 23.0283 34.81 23.0263 35.6655L23.5263 35.6667L24.0263 35.6678C24.0277 35.062 24.2281 34.5571 24.6332 34.1266L24.2691 33.784ZM23.5263 35.6667L23.0263 35.6655C23.0243 36.5229 23.3198 37.2747 23.9058 37.8942L24.2691 37.5507L24.6323 37.2071C24.2246 36.776 24.0249 36.2718 24.0263 35.6678L23.5263 35.6667ZM24.2691 37.5507L23.9058 37.8942C24.4929 38.515 25.2179 38.8376 26.0552 38.8333L26.0526 38.3333L26.0501 37.8333C25.503 37.8362 25.0389 37.637 24.6323 37.2071L24.2691 37.5507ZM26.0526 38.3333L26.0552 38.8333C26.8883 38.829 27.6107 38.5086 28.1981 37.897L27.8375 37.5507L27.4768 37.2043C27.0688 37.6292 26.6014 37.8305 26.0501 37.8333L26.0526 38.3333Z" fill="var(--stroke-0, #F4F5F6)" mask="url(#path-2-inside-1_303_112)"/>
</g>
</g>
</svg>
