<svg preserveAspectRatio="xMidYMid meet" width="21" height="26.269" overflow="visible" style="display: block;" viewBox="0 0 21 26.2692" fill="none" xmlns="http://www.w3.org/2000/svg">
<g id="Group">
<g id="Vector">
<mask id="path-1-inside-1_303_116" fill="white">
<path d="M11.1792 25.5879L11.192 25.5854C11.2021 25.587 11.2088 25.5944 11.2119 25.6075L11.2317 26.1327L11.227 26.1536L11.213 26.1733L11.0917 26.2643L11.0777 26.2692L11.0602 26.2643L10.9389 26.1733L10.9272 26.1573L10.9214 26.1327L10.9412 25.6063L10.9459 25.594C10.9521 25.5858 10.9614 25.5838 10.9739 25.5879L11.0567 25.6309L11.073 25.6358L11.0964 25.6309L11.1792 25.5879Z"/>
<path d="M11.486 25.4489L11.5012 25.4464C11.5129 25.4497 11.5206 25.4587 11.5245 25.4735L11.5642 26.2286L11.5595 26.2459C11.5518 26.2565 11.5405 26.2598 11.5257 26.2557L11.2912 26.1413L11.2819 26.1327L11.276 26.1179L11.255 25.5891L11.2585 25.5756L11.2702 25.5633L11.486 25.4489Z"/>
<path d="M10.6499 25.4459C10.6557 25.4445 10.6619 25.4456 10.667 25.4489L10.8817 25.562L10.8934 25.5743L10.8969 25.5891L10.877 26.1179L10.8724 26.1315L10.8607 26.1413L10.6262 26.2557L10.6087 26.2582C10.5963 26.2532 10.5896 26.2434 10.5889 26.2286L10.6285 25.4735L10.6355 25.4563C10.6389 25.451 10.644 25.4473 10.6499 25.4459Z"/>
</mask>
<path d="M11.1792 25.5879L11.192 25.5854C11.2021 25.587 11.2088 25.5944 11.2119 25.6075L11.2317 26.1327L11.227 26.1536L11.213 26.1733L11.0917 26.2643L11.0777 26.2692L11.0602 26.2643L10.9389 26.1733L10.9272 26.1573L10.9214 26.1327L10.9412 25.6063L10.9459 25.594C10.9521 25.5858 10.9614 25.5838 10.9739 25.5879L11.0567 25.6309L11.073 25.6358L11.0964 25.6309L11.1792 25.5879Z" fill="var(--fill-0, #1E3ED7)"/>
<path d="M11.486 25.4489L11.5012 25.4464C11.5129 25.4497 11.5206 25.4587 11.5245 25.4735L11.5642 26.2286L11.5595 26.2459C11.5518 26.2565 11.5405 26.2598 11.5257 26.2557L11.2912 26.1413L11.2819 26.1327L11.276 26.1179L11.255 25.5891L11.2585 25.5756L11.2702 25.5633L11.486 25.4489Z" fill="var(--fill-0, #1E3ED7)"/>
<path d="M10.6499 25.4459C10.6557 25.4445 10.6619 25.4456 10.667 25.4489L10.8817 25.562L10.8934 25.5743L10.8969 25.5891L10.877 26.1179L10.8724 26.1315L10.8607 26.1413L10.6262 26.2557L10.6087 26.2582C10.5963 26.2532 10.5896 26.2434 10.5889 26.2286L10.6285 25.4735L10.6355 25.4563C10.6389 25.451 10.644 25.4473 10.6499 25.4459Z" fill="var(--fill-0, #1E3ED7)"/>
<path d="M11.192 25.5854L11.2721 25.0918L11.1848 25.0777L11.0979 25.0943L11.192 25.5854ZM11.1792 25.5879L11.085 25.0968L11.0134 25.1105L10.9486 25.1442L11.1792 25.5879ZM11.0964 25.6309L11.1995 26.1201L11.2663 26.1061L11.3269 26.0746L11.0964 25.6309ZM11.073 25.6358L10.9288 26.1146L11.0512 26.1514L11.1762 26.1251L11.073 25.6358ZM11.0567 25.6309L10.8261 26.0746L10.8677 26.0962L10.9125 26.1097L11.0567 25.6309ZM10.9739 25.5879L11.2044 25.1442L11.1686 25.1256L11.1303 25.113L10.9739 25.5879ZM10.9459 25.594L10.5476 25.2917L10.504 25.3492L10.4784 25.4166L10.9459 25.594ZM10.9412 25.6063L10.4737 25.4289L10.4446 25.5056L10.4416 25.5875L10.9412 25.6063ZM10.9214 26.1327L10.4217 26.1139L10.4192 26.1819L10.4349 26.2481L10.9214 26.1327ZM10.9272 26.1573L10.4407 26.2727L10.4639 26.3707L10.5233 26.452L10.9272 26.1573ZM10.9389 26.1733L10.535 26.468L10.579 26.5284L10.6388 26.5733L10.9389 26.1733ZM11.0602 26.2643L10.7602 26.6643L10.8349 26.7204L10.9249 26.7456L11.0602 26.2643ZM11.0777 26.2692L10.9424 26.7506L11.0944 26.7933L11.2435 26.7409L11.0777 26.2692ZM11.0917 26.2643L11.2575 26.736L11.3301 26.7105L11.3917 26.6643L11.0917 26.2643ZM11.213 26.1733L11.5131 26.5733L11.5753 26.5266L11.6205 26.4631L11.213 26.1733ZM11.227 26.1536L11.6345 26.4435L11.693 26.3611L11.715 26.2625L11.227 26.1536ZM11.2317 26.1327L11.7197 26.2416L11.7338 26.1785L11.7313 26.1138L11.2317 26.1327ZM11.2119 25.6075L11.7115 25.5887L11.7097 25.5398L11.6984 25.4922L11.2119 25.6075ZM11.5012 25.4464L11.6365 24.9651L11.5302 24.9352L11.4212 24.9529L11.5012 25.4464ZM11.486 25.4489L11.406 24.9553L11.3247 24.9685L11.2519 25.0071L11.486 25.4489ZM11.2702 25.5633L11.0361 25.1215L10.9638 25.1598L10.9074 25.2192L11.2702 25.5633ZM11.2585 25.5756L10.8958 25.2314L10.8068 25.3252L10.7745 25.4504L11.2585 25.5756ZM11.255 25.5891L10.771 25.4639L10.7525 25.5353L10.7554 25.6089L11.255 25.5891ZM11.276 26.1179L10.7764 26.1378L10.7798 26.2227L10.811 26.3017L11.276 26.1179ZM11.2819 26.1327L10.8169 26.3165L10.8589 26.4228L10.9429 26.5002L11.2819 26.1327ZM11.2912 26.1413L10.9522 26.5088L11.0061 26.5586L11.072 26.5907L11.2912 26.1413ZM11.5257 26.2557L11.3065 26.7051L11.3478 26.7252L11.392 26.7375L11.5257 26.2557ZM11.5595 26.2459L11.9634 26.5406L12.0179 26.4659L12.0421 26.3766L11.5595 26.2459ZM11.5642 26.2286L12.0468 26.3594L12.0677 26.2823L12.0635 26.2024L11.5642 26.2286ZM11.5245 25.4735L12.0238 25.4472L12.0211 25.3958L12.008 25.3461L11.5245 25.4735ZM10.667 25.4489L10.3978 25.8702L10.4154 25.8815L10.4339 25.8912L10.667 25.4489ZM10.6499 25.4459L10.7639 25.9327H10.7639L10.6499 25.4459ZM10.6355 25.4563L10.2131 25.1888L10.1892 25.2265L10.1724 25.2679L10.6355 25.4563ZM10.6285 25.4735L10.1654 25.2852L10.1336 25.3632L10.1292 25.4472L10.6285 25.4735ZM10.5889 26.2286L10.0896 26.2024L10.0882 26.2287L10.0896 26.2549L10.5889 26.2286ZM10.6087 26.2582L10.4249 26.7231L10.5476 26.7717L10.6783 26.7533L10.6087 26.2582ZM10.6262 26.2557L10.6958 26.7508L10.7742 26.7398L10.8454 26.7051L10.6262 26.2557ZM10.8607 26.1413L11.0799 26.5907L11.1356 26.5635L11.183 26.5235L10.8607 26.1413ZM10.8724 26.1315L11.1947 26.5137L11.3001 26.4248L11.345 26.2945L10.8724 26.1315ZM10.877 26.1179L11.3497 26.281L11.3739 26.2108L11.3767 26.1367L10.877 26.1179ZM10.8969 25.5891L11.3965 25.6078L11.3991 25.5399L11.3834 25.4737L10.8969 25.5891ZM10.8934 25.5743L11.3799 25.4589L11.3488 25.3279L11.2561 25.2302L10.8934 25.5743ZM10.8817 25.562L11.2445 25.2179L11.1877 25.1581L11.1148 25.1197L10.8817 25.562ZM11.192 25.5854L11.0979 25.0943L11.085 25.0968L11.1792 25.5879L11.2734 26.0789L11.2862 26.0764L11.192 25.5854ZM11.1792 25.5879L10.9486 25.1442L10.8658 25.1872L11.0964 25.6309L11.3269 26.0746L11.4098 26.0315L11.1792 25.5879ZM11.0964 25.6309L10.9932 25.1417L10.9699 25.1466L11.073 25.6358L11.1762 26.1251L11.1995 26.1201L11.0964 25.6309ZM11.073 25.6358L11.2172 25.1571L11.2009 25.1521L11.0567 25.6309L10.9125 26.1097L10.9288 26.1146L11.073 25.6358ZM11.0567 25.6309L11.2873 25.1872L11.2044 25.1442L10.9739 25.5879L10.7433 26.0315L10.8261 26.0746L11.0567 25.6309ZM10.9739 25.5879L11.1303 25.113C11.0693 25.0929 10.9691 25.0719 10.8503 25.0979C10.7203 25.1265 10.6165 25.2009 10.5476 25.2917L10.9459 25.594L11.3442 25.8963C11.2814 25.9789 11.1855 26.0482 11.0648 26.0747C10.9553 26.0987 10.866 26.0787 10.8174 26.0627L10.9739 25.5879ZM10.9459 25.594L10.4784 25.4166L10.4737 25.4289L10.9412 25.6063L11.4087 25.7837L11.4134 25.7714L10.9459 25.594ZM10.9412 25.6063L10.4416 25.5875L10.4217 26.1139L10.9214 26.1327L11.421 26.1515L11.4408 25.6251L10.9412 25.6063ZM10.9214 26.1327L10.4349 26.2481L10.4407 26.2727L10.9272 26.1573L11.4137 26.0419L11.4079 26.0173L10.9214 26.1327ZM10.9272 26.1573L10.5233 26.452L10.535 26.468L10.9389 26.1733L11.3428 25.8786L11.3311 25.8626L10.9272 26.1573ZM10.9389 26.1733L10.6388 26.5733L10.7602 26.6643L11.0602 26.2643L11.3602 25.8643L11.2389 25.7733L10.9389 26.1733ZM11.0602 26.2643L10.9249 26.7456L10.9424 26.7506L11.0777 26.2692L11.213 25.7879L11.1955 25.783L11.0602 26.2643ZM11.0777 26.2692L11.2435 26.7409L11.2575 26.736L11.0917 26.2643L10.9259 25.7926L10.9119 25.7975L11.0777 26.2692ZM11.0917 26.2643L11.3917 26.6643L11.5131 26.5733L11.213 26.1733L10.913 25.7733L10.7917 25.8643L11.0917 26.2643ZM11.213 26.1733L11.6205 26.4631L11.6345 26.4435L11.227 26.1536L10.8196 25.8638L10.8056 25.8834L11.213 26.1733ZM11.227 26.1536L11.715 26.2625L11.7197 26.2416L11.2317 26.1327L10.7437 26.0238L10.739 26.0447L11.227 26.1536ZM11.2317 26.1327L11.7313 26.1138L11.7115 25.5887L11.2119 25.6075L10.7122 25.6264L10.7321 26.1516L11.2317 26.1327ZM11.2119 25.6075L11.6984 25.4922C11.6842 25.4324 11.6524 25.3427 11.577 25.2585C11.4946 25.1666 11.3859 25.1103 11.2721 25.0918L11.192 25.5854L11.112 26.0789C11.0083 26.0621 10.9079 26.0103 10.8322 25.9258C10.7634 25.849 10.7364 25.7695 10.7254 25.7229L11.2119 25.6075ZM11.5012 25.4464L11.4212 24.9529L11.406 24.9553L11.486 25.4489L11.566 25.9424L11.5812 25.94L11.5012 25.4464ZM11.486 25.4489L11.2519 25.0071L11.0361 25.1215L11.2702 25.5633L11.5043 26.005L11.7202 25.8907L11.486 25.4489ZM11.2702 25.5633L10.9074 25.2192L10.8958 25.2314L11.2585 25.5756L11.6213 25.9197L11.633 25.9074L11.2702 25.5633ZM11.2585 25.5756L10.7745 25.4504L10.771 25.4639L11.255 25.5891L11.7391 25.7143L11.7426 25.7008L11.2585 25.5756ZM11.255 25.5891L10.7554 25.6089L10.7764 26.1378L11.276 26.1179L11.7756 26.0981L11.7546 25.5692L11.255 25.5891ZM11.276 26.1179L10.811 26.3017L10.8169 26.3165L11.2819 26.1327L11.7469 25.9489L11.741 25.9341L11.276 26.1179ZM11.2819 26.1327L10.9429 26.5002L10.9522 26.5088L11.2912 26.1413L11.6302 25.7738L11.6209 25.7652L11.2819 26.1327ZM11.2912 26.1413L11.072 26.5907L11.3065 26.7051L11.5257 26.2557L11.7449 25.8063L11.5104 25.6919L11.2912 26.1413ZM11.5257 26.2557L11.392 26.7375C11.4621 26.7569 11.5667 26.7708 11.6848 26.7364C11.8097 26.7001 11.9028 26.6236 11.9634 26.5406L11.5595 26.2459L11.1556 25.9511C11.2084 25.8787 11.2921 25.8092 11.4056 25.7762C11.5126 25.7451 11.6041 25.7586 11.6594 25.7739L11.5257 26.2557ZM11.5595 26.2459L12.0421 26.3766L12.0468 26.3594L11.5642 26.2286L11.0816 26.0978L11.0769 26.1151L11.5595 26.2459ZM11.5642 26.2286L12.0635 26.2024L12.0238 25.4472L11.5245 25.4735L11.0252 25.4997L11.0649 26.2549L11.5642 26.2286ZM11.5245 25.4735L12.008 25.3461C11.9725 25.2114 11.8644 25.0291 11.6365 24.9651L11.5012 25.4464L11.3659 25.9278C11.2789 25.9033 11.1986 25.8534 11.1371 25.7822C11.0795 25.7153 11.0532 25.647 11.041 25.6009L11.5245 25.4735ZM10.667 25.4489L10.9362 25.0275C10.8189 24.9526 10.6748 24.9265 10.5358 24.9591L10.6499 25.4459L10.7639 25.9327C10.6367 25.9625 10.5049 25.9386 10.3978 25.8702L10.667 25.4489ZM10.6499 25.4459L10.5358 24.9591C10.3975 24.9915 10.2838 25.0771 10.2131 25.1888L10.6355 25.4563L11.058 25.7237C10.9939 25.8249 10.8905 25.9031 10.7639 25.9327L10.6499 25.4459ZM10.6355 25.4563L10.1724 25.2679L10.1654 25.2852L10.6285 25.4735L11.0917 25.6618L11.0987 25.6446L10.6355 25.4563ZM10.6285 25.4735L10.1292 25.4472L10.0896 26.2024L10.5889 26.2286L11.0882 26.2549L11.1278 25.4997L10.6285 25.4735ZM10.5889 26.2286L10.0896 26.2549C10.0935 26.3305 10.1146 26.4296 10.1794 26.5259C10.2462 26.6254 10.3371 26.6884 10.4249 26.7231L10.6087 26.2582L10.7925 25.7932C10.8678 25.8229 10.9492 25.8786 11.0094 25.9682C11.0676 26.0548 11.085 26.1415 11.0882 26.2023L10.5889 26.2286ZM10.6087 26.2582L10.6783 26.7533L10.6958 26.7508L10.6262 26.2557L10.5566 25.7606L10.5391 25.763L10.6087 26.2582ZM10.6262 26.2557L10.8454 26.7051L11.0799 26.5907L10.8607 26.1413L10.6415 25.6919L10.407 25.8063L10.6262 26.2557ZM10.8607 26.1413L11.183 26.5235L11.1947 26.5137L10.8724 26.1315L10.55 25.7492L10.5384 25.7591L10.8607 26.1413ZM10.8724 26.1315L11.345 26.2945L11.3497 26.281L10.877 26.1179L10.4044 25.9549L10.3997 25.9684L10.8724 26.1315ZM10.877 26.1179L11.3767 26.1367L11.3965 25.6078L10.8969 25.5891L10.3972 25.5703L10.3774 26.0992L10.877 26.1179ZM10.8969 25.5891L11.3834 25.4737L11.3799 25.4589L10.8934 25.5743L10.4069 25.6897L10.4104 25.7045L10.8969 25.5891ZM10.8934 25.5743L11.2561 25.2302L11.2445 25.2179L10.8817 25.562L10.5189 25.9061L10.5306 25.9184L10.8934 25.5743ZM10.8817 25.562L11.1148 25.1197L10.9002 25.0066L10.667 25.4489L10.4339 25.8912L10.6486 26.0043L10.8817 25.562Z" fill="var(--stroke-0, #F4F5F6)" mask="url(#path-1-inside-1_303_116)"/>
</g>
<path id="Vector_2" d="M9.77246 0.388672C10.179 0.228301 10.6227 0.206488 11.041 0.326172L11.2275 0.387695V0.388672L19.3936 3.61719C19.7617 3.76271 20.0847 4.01655 20.3242 4.35059C20.5339 4.64305 20.6715 4.98593 20.7246 5.34863L20.7422 5.50488L20.75 5.69824V12.2842C20.7499 14.2346 20.2501 16.1478 19.3047 17.8223C18.3592 19.4967 17.0034 20.8697 15.3818 21.7969L15.0791 21.9639L11.166 24.0264C10.9822 24.123 10.7821 24.1783 10.5781 24.1895C10.4249 24.1978 10.2712 24.1817 10.123 24.1406L9.97754 24.0908L9.8252 24.0215L5.9209 21.9639C4.2711 21.0942 2.87274 19.77 1.875 18.1299C0.939532 16.5921 0.389349 14.8303 0.273438 13.0098L0.255859 12.6455L0.25 12.2803V5.68848L0.254883 5.53027C0.279575 5.16457 0.390127 4.81075 0.576172 4.50098C0.788848 4.14695 1.09164 3.86582 1.44727 3.68848L1.44629 3.6875L1.60547 3.61621L1.60645 3.61719L9.77246 0.388672ZM15.3008 7.96094C15.5294 7.95358 15.7544 8.03826 15.9297 8.20117C16.1054 8.36453 16.2185 8.59507 16.2412 8.84668C16.2636 9.09605 16.1947 9.3429 16.0527 9.53906L15.9629 9.64746L9.86719 16.0752C9.68702 16.265 9.44908 16.3763 9.2002 16.3916C8.95138 16.4068 8.70372 16.3249 8.50488 16.1592L8.40723 16.0684L5.61035 13.1182L5.60938 13.1172L5.5498 13.0488C5.41821 12.8825 5.34019 12.6723 5.33301 12.4502C5.32484 12.1964 5.40996 11.9508 5.56641 11.7637C5.72246 11.577 5.93728 11.4628 6.16602 11.4404C6.39238 11.4184 6.62037 11.487 6.80371 11.6357L6.89648 11.7207V11.7217L8.95898 13.8965L9.14062 14.0879L9.32227 13.8965L14.6865 8.24121C14.8525 8.06703 15.0724 7.96839 15.3008 7.96094ZM18.917 5.51855L18.7588 5.45605L10.5918 2.22754L10.5 2.19043L10.4082 2.22754L2.24121 5.45605L2.08301 5.51855V12.2842C2.08305 13.8698 2.48766 15.4271 3.25488 16.793C4.0223 18.1591 5.12539 19.2847 6.44922 20.0498L6.45312 20.0518L6.72754 20.2031L6.73145 20.2061L10.3838 22.1309L10.5 22.1924L10.6162 22.1309L14.2686 20.2061C15.6193 19.4942 16.762 18.413 17.5781 17.0781C18.3941 15.7434 18.8543 14.2029 18.9111 12.6182V12.6133L18.917 12.2881V5.51855Z" fill="var(--fill-0, #1E3ED7)" stroke="var(--stroke-0, #F4F5F6)" stroke-width="0.5"/>
</g>
</svg>
