<svg preserveAspectRatio="none" width="100%" height="100%" overflow="visible" style="display: block;" viewBox="0 0 65 65" fill="none" xmlns="http://www.w3.org/2000/svg">
<g id="Group 3864">
<circle id="Ellipse 190" cx="32.5" cy="32.5" r="32" fill="var(--fill-0, white)" fill-opacity="0.5" stroke="var(--stroke-0, #BDBEC9)"/>
<g id="icon 2">
<path id="Vector" d="M23.0028 24.8889C22.9943 24.7761 23.0052 24.6624 23.0347 24.555C23.0643 24.4476 23.1119 24.3489 23.1744 24.2653C23.237 24.1816 23.3132 24.1148 23.3981 24.0691C23.4831 24.0234 23.5749 23.9999 23.6677 24H42.2174C42.3102 23.9999 42.402 24.0234 42.4869 24.0691C42.5718 24.1148 42.648 24.1816 42.7106 24.2653C42.7732 24.3489 42.8208 24.4476 42.8503 24.555C42.8799 24.6624 42.8908 24.7761 42.8822 24.8889L41.5747 42.2604C41.5595 42.4624 41.483 42.6503 41.3602 42.7871C41.2374 42.9239 41.0772 42.9998 40.911 43H36.2947C36.1519 43.0001 36.0128 42.9443 35.8979 42.8407C35.783 42.7371 35.6984 42.5912 35.6565 42.4246L33.5807 34.1433C33.3873 33.3751 32.4978 33.3751 32.3043 34.1433L30.2274 42.4246C30.1856 42.591 30.1012 42.7367 29.9865 42.8403C29.8718 42.9438 29.733 42.9998 29.5904 43H24.9741C24.8078 42.9998 24.6476 42.9239 24.5248 42.7871C24.4021 42.6503 24.3256 42.4624 24.3103 42.2604L23.651 33.5L23.0028 24.8889Z" stroke="var(--stroke-0, #1E3ED7)" stroke-width="1.5"/>
<path id="Vector_2" d="M24.0488 30.1071H25.7165C26.3063 30.1071 26.8719 29.8212 27.2889 29.3121C27.7059 28.8031 27.9402 28.1127 27.9402 27.3929V24M42.3939 30.1071H40.1703C39.5805 30.1071 39.0149 29.8212 38.5979 29.3121C38.1809 28.8031 37.9466 28.1127 37.9466 27.3929V24" stroke="var(--stroke-0, #1E3ED7)" stroke-width="1.5"/>
</g>
</g>
</svg>
