<svg preserveAspectRatio="none" width="100%" height="100%" overflow="visible" style="display: block;" viewBox="0 0 65 65" fill="none" xmlns="http://www.w3.org/2000/svg">
<g id="Group 3863">
<circle id="Ellipse 189" cx="32.5" cy="32.5" r="32" fill="var(--fill-0, white)" fill-opacity="0.5" stroke="var(--stroke-0, #BDBEC9)"/>
<g id="icon 1">
<path id="Vector" d="M36 23.2C40.564 24.127 44 28.162 44 33C44 37.838 40.564 41.873 36 42.8" stroke="var(--stroke-0, #1E3ED7)" stroke-width="1.5" stroke-linecap="round" stroke-linejoin="round"/>
<path id="Vector_2" d="M36 30C37.141 30.284 38 31.519 38 33C38 34.481 37.141 35.716 36 36M22 23H32V43H22" stroke="var(--stroke-0, #1E3ED7)" stroke-width="1.5" stroke-linecap="round" stroke-linejoin="round"/>
<path id="Vector_3" d="M25 36.5C25 36.8978 24.842 37.2794 24.5607 37.5607C24.2794 37.842 23.8978 38 23.5 38C23.1022 38 22.7206 37.842 22.4393 37.5607C22.158 37.2794 22 36.8978 22 36.5C22 36.1022 22.158 35.7206 22.4393 35.4393C22.7206 35.158 23.1022 35 23.5 35C23.8978 35 24.2794 35.158 24.5607 35.4393C24.842 35.7206 25 36.1022 25 36.5ZM25 36.5V28.6C25 28.4409 25.0632 28.2883 25.1757 28.1757C25.2883 28.0632 25.4409 28 25.6 28H28" stroke="var(--stroke-0, #1E3ED7)" stroke-width="1.5" stroke-linecap="round"/>
</g>
</g>
</svg>
