<svg preserveAspectRatio="none" width="100%" height="100%" overflow="visible" style="display: block;" viewBox="0 0 26 26" fill="none" xmlns="http://www.w3.org/2000/svg">
<path id="Vector" d="M13 0C9.466 0 9.02557 0.0170646 7.64252 0.075572C6.25378 0.14383 5.31441 0.35917 4.48556 0.68096C3.61811 1.00853 2.83251 1.52126 2.18346 2.18346C1.52024 2.83167 1.00735 3.61752 0.68096 4.48556C0.35917 5.31441 0.14383 6.25378 0.075572 7.64252C0.0130016 9.02638 0 9.466 0 13C0 16.534 0.0170646 16.9744 0.075572 18.3575C0.14383 19.7422 0.35917 20.6856 0.68096 21.5144C1.00853 22.3819 1.52126 23.1675 2.18346 23.8165C2.83167 24.4798 3.61752 24.9927 4.48556 25.319C5.31441 25.6368 6.25784 25.8562 7.64252 25.9244C9.02638 25.987 9.466 26 13 26C16.534 26 16.9744 25.9829 18.3575 25.9244C19.7422 25.8562 20.6856 25.636 21.5144 25.319C22.3819 24.9915 23.1675 24.4787 23.8165 23.8165C24.4818 23.17 24.9951 22.3837 25.319 21.5144C25.6368 20.6856 25.8562 19.7422 25.9244 18.3575C25.987 16.9736 26 16.534 26 13C26 9.466 25.9829 9.02557 25.9244 7.64252C25.8562 6.25784 25.636 5.30954 25.319 4.48556C24.9915 3.61811 24.4787 2.83251 23.8165 2.18346C23.17 1.51816 22.3837 1.00495 21.5144 0.68096C20.6856 0.35917 19.7422 0.14383 18.3575 0.075572C16.9736 0.0130016 16.534 0 13 0ZM13 2.34029C16.4706 2.34029 16.885 2.35736 18.2567 2.41586C19.5219 2.47518 20.211 2.68646 20.6685 2.86523C21.234 3.07428 21.7458 3.40654 22.167 3.83792C22.5985 4.25653 22.9297 4.76743 23.1356 5.33229C23.3144 5.78979 23.5256 6.47887 23.5849 7.74409C23.6435 9.11576 23.6605 9.531 23.6605 13.0008C23.6605 16.4706 23.6435 16.8859 23.5801 18.2575C23.5118 19.5228 23.3005 20.2118 23.1226 20.6693C22.8764 21.2796 22.6017 21.7062 22.1483 22.1678C21.7259 22.5966 21.2143 22.9273 20.6498 23.1364C20.198 23.3152 19.4992 23.5264 18.2291 23.5858C16.8501 23.6443 16.4438 23.6613 12.9642 23.6613C9.48469 23.6613 9.0792 23.6443 7.69859 23.5809C6.43337 23.5126 5.73534 23.3014 5.27785 23.1234C4.66027 22.8772 4.23691 22.6025 3.78347 22.1491C3.32598 21.6916 3.03507 21.256 2.81079 20.6506C2.62877 20.1988 2.42074 19.5 2.35329 18.2299C2.30698 16.8672 2.28504 16.4446 2.28504 12.9813C2.28504 9.51963 2.30698 9.09626 2.35329 7.71647C2.42074 6.44637 2.62877 5.74916 2.81079 5.29572C3.03507 4.67734 3.32679 4.25478 3.78347 3.79729C4.23609 3.34467 4.66027 3.05213 5.27785 2.82298C5.73534 2.64502 6.4163 2.43374 7.6864 2.37036C9.06538 2.32079 9.47168 2.30291 12.9464 2.30291L13 2.34029ZM13 6.32773C12.1235 6.32741 11.2555 6.49982 10.4456 6.8351C9.63577 7.17038 8.89992 7.66196 8.28013 8.28175C7.66034 8.90155 7.16875 9.6374 6.83347 10.4473C6.49819 11.2571 6.32578 12.1251 6.3261 13.0016C6.32578 13.8781 6.49819 14.7461 6.83347 15.556C7.16875 16.3659 7.66034 17.1017 8.28013 17.7215C8.89992 18.3413 9.63577 18.8329 10.4456 19.1682C11.2555 19.5034 12.1235 19.6758 13 19.6755C13.8765 19.6758 14.7445 19.5034 15.5544 19.1682C16.3642 18.8329 17.1001 18.3413 17.7199 17.7215C18.3397 17.1017 18.8312 16.3659 19.1665 15.556C19.5018 14.7461 19.6742 13.8781 19.6739 13.0016C19.6742 12.1251 19.5018 11.2571 19.1665 10.4473C18.8312 9.6374 18.3397 8.90155 17.7199 8.28175C17.1001 7.66196 16.3642 7.17038 15.5544 6.8351C14.7445 6.49982 13.8765 6.32741 13 6.32773ZM13 17.3352C10.6045 17.3352 8.6664 15.3972 8.6664 13.0016C8.6664 10.6061 10.6045 8.66802 13 8.66802C15.3956 8.66802 17.3336 10.6061 17.3336 13.0016C17.3336 15.3972 15.3956 17.3352 13 17.3352ZM21.5031 6.0612C21.5026 6.47535 21.3378 6.87239 21.0448 7.16509C20.7518 7.45779 20.3546 7.6222 19.9404 7.6222C19.7356 7.6222 19.5329 7.58187 19.3437 7.5035C19.1545 7.42514 18.9826 7.31027 18.8378 7.16547C18.693 7.02067 18.5781 6.84876 18.4997 6.65957C18.4214 6.47038 18.381 6.2676 18.381 6.06282C18.381 5.85804 18.4214 5.65526 18.4997 5.46607C18.5781 5.27688 18.693 5.10497 18.8378 4.96017C18.9826 4.81537 19.1545 4.70051 19.3437 4.62214C19.5329 4.54377 19.7356 4.50344 19.9404 4.50344C20.7994 4.50344 21.5031 5.20228 21.5031 6.0612Z" fill="var(--fill-0, #353535)"/>
</svg>
