<svg preserveAspectRatio="xMidYMid meet" width="19.118" height="19.118" overflow="visible" style="display: block;" viewBox="0 0 19.1176 19.1176" fill="none" xmlns="http://www.w3.org/2000/svg">
<path id="Vector" d="M9.55882 0C6.96029 0 6.63645 0.0125475 5.6195 0.0555676C4.59837 0.105758 3.90766 0.264096 3.29821 0.500706C2.66038 0.741563 2.08272 1.11858 1.60549 1.60549C1.11783 2.08211 0.740697 2.65994 0.500706 3.29821C0.264096 3.90766 0.105758 4.59837 0.0555676 5.6195C0.00956002 6.63704 0 6.96029 0 9.55882C0 12.1574 0.0125475 12.4812 0.0555676 13.4981C0.105758 14.5163 0.264096 15.21 0.500706 15.8194C0.741563 16.4573 1.11858 17.0349 1.60549 17.5122C2.08211 17.9998 2.65994 18.377 3.29821 18.6169C3.90766 18.8506 4.60136 19.0119 5.6195 19.0621C6.63704 19.1081 6.96029 19.1176 9.55882 19.1176C12.1574 19.1176 12.4812 19.1051 13.4981 19.0621C14.5163 19.0119 15.21 18.85 15.8194 18.6169C16.4573 18.3761 17.0349 17.9991 17.5122 17.5122C18.0014 17.0368 18.3787 16.4586 18.6169 15.8194C18.8506 15.21 19.0119 14.5163 19.0621 13.4981C19.1081 12.4806 19.1176 12.1574 19.1176 9.55882C19.1176 6.96029 19.1051 6.63645 19.0621 5.6195C19.0119 4.60136 18.85 3.90407 18.6169 3.29821C18.3761 2.66038 17.9991 2.08273 17.5122 1.60549C17.0368 1.1163 16.4586 0.73893 15.8194 0.500706C15.21 0.264096 14.5163 0.105758 13.4981 0.0555676C12.4806 0.00956002 12.1574 0 9.55882 0ZM9.55882 1.7208C12.1108 1.7208 12.4155 1.73335 13.4241 1.77637C14.3544 1.81999 14.861 1.97534 15.1974 2.10679C15.6132 2.2605 15.9896 2.50481 16.2992 2.822C16.6166 3.1298 16.8601 3.50546 17.0115 3.9208C17.1429 4.2572 17.2983 4.76388 17.3419 5.69419C17.3849 6.70277 17.3974 7.00809 17.3974 9.55942C17.3974 12.1108 17.3849 12.4161 17.3383 13.4247C17.2881 14.355 17.1327 14.8616 17.0019 15.198C16.8209 15.6468 16.6189 15.9605 16.2855 16.2998C15.9749 16.6152 15.5988 16.8583 15.1837 17.0121C14.8515 17.1435 14.3376 17.2989 13.4037 17.3425C12.3898 17.3855 12.091 17.398 9.53253 17.398C6.97403 17.398 6.67588 17.3855 5.66073 17.3389C4.73042 17.2887 4.21716 17.1333 3.88077 17.0025C3.42667 16.8215 3.11537 16.6195 2.78197 16.2861C2.44557 15.9497 2.23167 15.6294 2.06676 15.1843C1.93292 14.8521 1.77996 14.3382 1.73036 13.4043C1.69631 12.4023 1.68017 12.0916 1.68017 9.54508C1.68017 6.99973 1.69631 6.68843 1.73036 5.67387C1.77996 4.73998 1.93292 4.22732 2.06676 3.89392C2.23167 3.43922 2.44617 3.12852 2.78197 2.79212C3.11477 2.45931 3.42667 2.24421 3.88077 2.07572C4.21716 1.94487 4.71787 1.78952 5.65176 1.74291C6.66572 1.70646 6.96447 1.69332 9.51939 1.69332L9.55882 1.7208ZM9.55882 4.65274C8.91433 4.65251 8.2761 4.77928 7.68061 5.02581C7.08513 5.27234 6.54406 5.6338 6.08833 6.08953C5.6326 6.54525 5.27114 7.08632 5.02461 7.68181C4.77808 8.27729 4.65131 8.91552 4.65155 9.56002C4.65131 10.2045 4.77808 10.8427 5.02461 11.4382C5.27114 12.0337 5.6326 12.5748 6.08833 13.0305C6.54406 13.4862 7.08513 13.8477 7.68061 14.0942C8.2761 14.3408 8.91433 14.4675 9.55882 14.4673C10.2033 14.4675 10.8416 14.3408 11.437 14.0942C12.0325 13.8477 12.5736 13.4862 13.0293 13.0305C13.485 12.5748 13.8465 12.0337 14.093 11.4382C14.3396 10.8427 14.4663 10.2045 14.4661 9.56002C14.4663 8.91552 14.3396 8.27729 14.093 7.68181C13.8465 7.08632 13.485 6.54525 13.0293 6.08953C12.5736 5.6338 12.0325 5.27234 11.437 5.02581C10.8416 4.77928 10.2033 4.65251 9.55882 4.65274ZM9.55882 12.7465C7.79739 12.7465 6.37235 11.3215 6.37235 9.56002C6.37235 7.79859 7.79739 6.37355 9.55882 6.37355C11.3203 6.37355 12.7453 7.79859 12.7453 9.56002C12.7453 11.3215 11.3203 12.7465 9.55882 12.7465ZM15.8111 4.45676C15.8108 4.76129 15.6896 5.05323 15.4741 5.26845C15.2587 5.48367 14.9666 5.60456 14.6621 5.60456C14.5115 5.60456 14.3624 5.5749 14.2233 5.51728C14.0842 5.45966 13.9578 5.3752 13.8513 5.26873C13.7448 5.16226 13.6604 5.03586 13.6028 4.89674C13.5451 4.75763 13.5155 4.60853 13.5155 4.45796C13.5155 4.30738 13.5451 4.15828 13.6028 4.01917C13.6604 3.88006 13.7448 3.75366 13.8513 3.64718C13.9578 3.54071 14.0842 3.45625 14.2233 3.39863C14.3624 3.34101 14.5115 3.31135 14.6621 3.31135C15.2936 3.31135 15.8111 3.8252 15.8111 4.45676Z" fill="var(--fill-0, #353535)"/>
</svg>
