<svg preserveAspectRatio="xMidYMid meet" width="10.359" height="10.359" overflow="visible" style="display: block;" viewBox="0 0 10.3588 10.3588" fill="none" xmlns="http://www.w3.org/2000/svg">
<path id="Vector" d="M10.3415 4.70346C10.2831 4.45874 10.1127 4.33105 9.83533 4.33105C9.53846 4.33105 9.24158 4.33105 8.94958 4.33105C8.96905 3.94801 8.93498 3.57028 8.85711 3.19255C8.29744 0.463323 5.319 -0.887989 3.17764 0.638887C1.94635 1.51139 1.35748 2.75098 1.40615 4.33105C1.10441 4.33105 0.807537 4.33105 0.5058 4.32573C0.174862 4.32041 -0.0976751 4.62898 0.0337267 5.02799C0.564201 6.67723 1.08981 8.32115 1.62028 9.97039C1.70788 10.247 1.86362 10.3588 2.13129 10.3588C3.14844 10.3588 4.16558 10.3588 5.17786 10.3588C6.19988 10.3588 7.21702 10.3588 8.23904 10.3588C8.49211 10.3588 8.64784 10.2417 8.73545 9.98103C9.26592 8.33179 9.79639 6.67723 10.3269 5.02799C10.3609 4.92159 10.3707 4.80987 10.3415 4.70346ZM5.77647 4.33105C5.757 4.33105 5.7424 4.33105 5.73267 4.33105H4.66199C4.64739 4.33105 4.62792 4.33105 4.60359 4.33105H4.19965C3.54751 4.33105 2.90023 4.33105 2.24809 4.33105C2.20916 3.59156 2.36976 2.90526 2.7737 2.29877C3.44044 1.29858 4.35052 0.846372 5.46987 0.947454C6.78388 1.0645 7.90323 2.24557 8.07844 3.67136C8.10764 3.88948 8.10764 4.11293 8.10277 4.33105C7.32896 4.33105 6.55515 4.33105 5.77647 4.33105Z" fill="var(--fill-0, black)"/>
</svg>
