<svg preserveAspectRatio="xMidYMid meet" width="14.995" height="13.633" overflow="visible" style="display: block;" viewBox="0 0 16.0181 14.6551" fill="none" xmlns="http://www.w3.org/2000/svg">
<g id="icon 1">
<path id="Vector" d="M10.0539 0.65467C13.1648 1.28654 15.5069 4.03692 15.5069 7.33466C15.5069 10.6324 13.1648 13.3828 10.0539 14.0146" stroke="var(--stroke-0, #1E3ED7)" stroke-width="1.02245" stroke-linecap="round" stroke-linejoin="round"/>
<path id="Vector_2" d="M10.0541 5.28264C10.8318 5.47623 11.4173 6.31804 11.4173 7.32754C11.4173 8.33703 10.8318 9.17885 10.0541 9.37243M0.511223 0.511223H7.32754V14.1438H0.511223" stroke="var(--stroke-0, #1E3ED7)" stroke-width="1.02245" stroke-linecap="round" stroke-linejoin="round"/>
<path id="Vector_3" d="M2.55612 9.71366C2.55612 9.98483 2.44839 10.2449 2.25665 10.4366C2.0649 10.6284 1.80484 10.7361 1.53367 10.7361C1.2625 10.7361 1.00244 10.6284 0.810691 10.4366C0.618945 10.2449 0.511223 9.98483 0.511223 9.71366C0.511223 9.44249 0.618945 9.18243 0.810691 8.99068C1.00244 8.79894 1.2625 8.69122 1.53367 8.69122C1.80484 8.69122 2.0649 8.79894 2.25665 8.99068C2.44839 9.18243 2.55612 9.44249 2.55612 9.71366ZM2.55612 9.71366V4.32878C2.55612 4.22031 2.59921 4.11628 2.6759 4.03958C2.7526 3.96289 2.85663 3.9198 2.9651 3.9198H4.60101" stroke="var(--stroke-0, #1E3ED7)" stroke-width="1.02245" stroke-linecap="round"/>
</g>
</svg>
