<svg preserveAspectRatio="xMidYMid meet" width="14.706" height="17.146" overflow="visible" style="display: block;" viewBox="0 0 14.7059 17.1457" fill="none" xmlns="http://www.w3.org/2000/svg">
<path id="Vector" d="M7.7235 0.0122498C8.64223 -1.14085e-08 9.56097 0.0122498 10.4797 0C10.541 1.09023 10.9207 2.20496 11.7169 2.9767C12.5009 3.77294 13.6157 4.12818 14.7059 4.25068V7.12938C13.6891 7.09263 12.6724 6.88439 11.7414 6.44339C11.3372 6.25965 10.9697 6.0269 10.6022 5.7819C10.6022 7.86437 10.6022 9.95908 10.59 12.0293C10.541 13.0338 10.2102 14.026 9.63447 14.8468C8.71573 16.2187 7.11101 17.113 5.46953 17.1375C4.46505 17.1987 3.44832 16.917 2.59083 16.4025C1.16986 15.5572 0.165372 13.9893 0.0183747 12.3233C-0.0061249 11.9681 -0.0061249 11.6128 0.0183747 11.2576C0.140873 9.89783 0.814612 8.59936 1.84359 7.71737C3.00733 6.68839 4.6488 6.1984 6.18002 6.49239C6.19227 7.54587 6.15552 8.61161 6.15552 9.66509C5.45728 9.43234 4.63655 9.50584 4.02406 9.93458C3.57082 10.2286 3.24007 10.6696 3.05632 11.1841C2.90933 11.5516 2.94608 11.9436 2.95833 12.3355C3.12982 13.5115 4.24456 14.4915 5.42054 14.3813C6.20452 14.3813 6.96401 13.9035 7.36825 13.2298C7.503 12.997 7.65 12.752 7.66225 12.4703C7.73575 11.1963 7.699 9.92234 7.71125 8.63611C7.71125 5.7574 7.71125 2.8787 7.7235 0.0122498Z" fill="var(--fill-0, #353535)"/>
</svg>
