<svg preserveAspectRatio="xMidYMid meet" width="10.01" height="11.653" overflow="visible" style="display: block;" viewBox="0 0 10.0101 11.6521" fill="none" xmlns="http://www.w3.org/2000/svg">
<g id="Group 3806">
<path id="Vector" d="M1.98095 3.5662C1.92031 4.15649 1.87776 5.20115 2.25967 5.64581C2.25967 5.64581 2.07988 4.49824 3.69159 3.05843C4.34052 2.47882 4.49052 1.69047 4.26393 1.09921C4.1352 0.764258 3.9001 0.487559 3.69584 0.294355C3.57669 0.180762 3.66818 -0.00661626 3.84159 0.000179861C4.89052 0.0428983 6.59052 0.308918 7.31286 1.96329C7.62988 2.6895 7.65329 3.43999 7.50222 4.20309C7.40648 4.69047 7.06606 5.77397 7.84265 5.90698C8.39691 6.00212 8.66499 5.60018 8.7852 5.31086C8.8352 5.19047 9.00861 5.16037 9.10222 5.25649C10.0384 6.22834 10.1182 7.37299 9.92457 8.35843C9.5501 10.2633 7.43627 11.6497 5.33627 11.6497C2.71286 11.6497 0.624566 10.2798 0.0830762 7.80018C-0.135009 6.79921 -0.0243704 4.81863 1.66712 3.42057C1.79265 3.31571 1.99797 3.40892 1.98095 3.5662Z" fill="url(#paint0_radial_329_205)"/>
<path id="Vector_2" d="M6.29497 7.12978C5.32795 5.99386 5.76093 4.69774 5.99816 4.18123C6.03008 4.11327 5.94497 4.0492 5.87795 4.09094C5.46199 4.3492 4.60987 4.95696 4.21306 5.8123C3.67582 6.96861 3.71412 7.53463 4.03221 8.22589C4.22369 8.6424 4.00135 8.73075 3.88965 8.74628C3.78114 8.76182 3.68114 8.6958 3.60135 8.62687C3.37186 8.42573 3.2083 8.17022 3.12901 7.889C3.11199 7.82881 3.02582 7.8123 2.98646 7.86182C2.68859 8.23755 2.53433 8.84046 2.52689 9.26667C2.50348 10.5841 3.69603 11.6521 5.13859 11.6521C6.95667 11.6521 8.28114 9.81716 7.23646 8.28318C6.93327 7.83657 6.64816 7.54434 6.29497 7.12978Z" fill="url(#paint1_radial_329_205)"/>
</g>
<defs>
<radialGradient id="paint0_radial_329_205" cx="0" cy="0" r="1" gradientTransform="matrix(-7.50926 -0.0297425 -0.053541 11.2446 4.81667 11.6799)" gradientUnits="userSpaceOnUse">
<stop offset="0.314" stop-color="#FF9800"/>
<stop offset="0.662" stop-color="#FF6D00"/>
<stop offset="0.972" stop-color="#F44336"/>
</radialGradient>
<radialGradient id="paint1_radial_329_205" cx="0" cy="0" r="1" gradientTransform="matrix(-0.0793602 7.17016 5.91273 0.0544986 5.23858 4.86166)" gradientUnits="userSpaceOnUse">
<stop offset="0.214" stop-color="#FFF176"/>
<stop offset="0.328" stop-color="#FFF27D"/>
<stop offset="0.487" stop-color="#FFF48F"/>
<stop offset="0.672" stop-color="#FFF7AD"/>
<stop offset="0.793" stop-color="#FFF9C4"/>
<stop offset="0.822" stop-color="#FFF8BD" stop-opacity="0.804"/>
<stop offset="0.863" stop-color="#FFF6AB" stop-opacity="0.529"/>
<stop offset="0.91" stop-color="#FFF38D" stop-opacity="0.209"/>
<stop offset="0.941" stop-color="#FFF176" stop-opacity="0"/>
</radialGradient>
</defs>
</svg>
