<svg preserveAspectRatio="xMidYMid meet" width="32.32" height="25.093" overflow="visible" style="display: block;" viewBox="0 0 32.3198 25.0944" fill="none" xmlns="http://www.w3.org/2000/svg">
<g id="mastercard logo">
<path id="Vector" d="M5.87989 25.0388V23.3743C5.87989 22.7361 5.49142 22.3201 4.82555 22.3201C4.49268 22.3201 4.13201 22.4311 3.88229 22.7917C3.68818 22.4865 3.41079 22.3201 2.99464 22.3201C2.71712 22.3201 2.43986 22.4033 2.21782 22.7085V22.3756H1.63523V25.0388H2.21782V23.5684C2.21782 23.0969 2.46753 22.8749 2.85601 22.8749C3.24423 22.8749 3.43859 23.1246 3.43859 23.5684V25.0388H4.02118V23.5684C4.02118 23.0969 4.29844 22.8749 4.65912 22.8749C5.04759 22.8749 5.2417 23.1246 5.2417 23.5684V25.0388H5.87989ZM14.5076 22.3756H13.5645V21.5711H12.9819V22.3756H12.4548V22.9026H12.9817V24.1233C12.9817 24.7337 13.2315 25.0943 13.8973 25.0943C14.147 25.0943 14.4243 25.0111 14.6187 24.9002L14.4521 24.4007C14.2857 24.5117 14.0916 24.5395 13.9528 24.5395C13.6754 24.5395 13.5645 24.3731 13.5645 24.0955V22.9026H14.5076V22.3756ZM19.4458 22.32C19.1129 22.32 18.891 22.4865 18.7523 22.7085V22.3756H18.1697V25.0388H18.7523V23.5408C18.7523 23.0969 18.9464 22.8472 19.307 22.8472C19.418 22.8472 19.5568 22.875 19.6677 22.9027L19.8341 22.3479C19.7232 22.3201 19.5567 22.3201 19.4458 22.3201M11.9831 22.5976C11.7056 22.4034 11.3173 22.3202 10.9011 22.3202C10.2354 22.3202 9.79155 22.6531 9.79155 23.1802C9.79155 23.6242 10.1244 23.8738 10.707 23.957L10.9844 23.9848C11.2896 24.0402 11.456 24.1235 11.456 24.2622C11.456 24.4563 11.2341 24.5951 10.8456 24.5951C10.4572 24.5951 10.1521 24.4563 9.95786 24.3177L9.68047 24.7615C9.98567 24.9835 10.4018 25.0944 10.8178 25.0944C11.5947 25.0944 12.0386 24.7339 12.0386 24.2344C12.0386 23.7628 11.6779 23.5131 11.123 23.4299L10.8456 23.4021C10.5959 23.3743 10.4018 23.319 10.4018 23.1525C10.4018 22.9583 10.5959 22.8473 10.9011 22.8473C11.2341 22.8473 11.567 22.986 11.7334 23.0693L11.9831 22.5976ZM27.4634 22.3202C27.1304 22.3202 26.9084 22.4867 26.7697 22.7086V22.3757H26.1871V25.0389H26.7697V23.5409C26.7697 23.0971 26.9639 22.8473 27.3245 22.8473C27.4356 22.8473 27.5743 22.8751 27.6853 22.9028L27.8517 22.348C27.7408 22.3202 27.5743 22.3202 27.4634 22.3202ZM20.0284 23.7073C20.0284 24.5118 20.5832 25.0944 21.4433 25.0944C21.8316 25.0944 22.109 25.0113 22.3864 24.7893L22.109 24.3177C21.8871 24.4841 21.6652 24.5673 21.4155 24.5673C20.9438 24.5673 20.611 24.2344 20.611 23.7073C20.611 23.208 20.9438 22.875 21.4155 22.8473C21.6652 22.8473 21.8871 22.9305 22.109 23.0971L22.3864 22.6254C22.109 22.4034 21.8316 22.3202 21.4433 22.3202C20.5832 22.3202 20.0284 22.9028 20.0284 23.7073ZM25.4104 23.7073V22.3757H24.8278V22.7086C24.6336 22.459 24.3562 22.3202 23.9955 22.3202C23.2465 22.3202 22.6639 22.9028 22.6639 23.7073C22.6639 24.5118 23.2465 25.0944 23.9955 25.0944C24.3839 25.0944 24.6614 24.9558 24.8278 24.7061V25.0389H25.4104V23.7073ZM23.2742 23.7073C23.2742 23.2357 23.5794 22.8473 24.0787 22.8473C24.5503 22.8473 24.8833 23.208 24.8833 23.7073C24.8833 24.179 24.5503 24.5673 24.0787 24.5673C23.5794 24.5395 23.2742 24.179 23.2742 23.7073ZM16.311 22.3202C15.5341 22.3202 14.9792 22.875 14.9792 23.7073C14.9792 24.5396 15.534 25.0944 16.3386 25.0944C16.727 25.0944 17.1155 24.9835 17.4206 24.7339L17.1431 24.3177C16.9212 24.4841 16.6438 24.5951 16.3664 24.5951C16.0058 24.5951 15.6451 24.4287 15.5618 23.9569H17.5316V23.7351C17.5594 22.875 17.0601 22.3202 16.311 22.3202ZM16.3108 22.8195C16.6714 22.8195 16.9212 23.0416 16.9766 23.4577H15.5895C15.645 23.0971 15.8947 22.8195 16.3108 22.8195ZM30.7645 23.7073V21.3215H30.1819V22.7086C29.9877 22.459 29.7103 22.3202 29.3496 22.3202C28.6006 22.3202 28.018 22.9028 28.018 23.7073C28.018 24.5118 28.6006 25.0944 29.3496 25.0944C29.7381 25.0944 30.0155 24.9558 30.1819 24.7061V25.0389H30.7645V23.7073ZM28.6284 23.7073C28.6284 23.2357 28.9335 22.8473 29.4329 22.8473C29.9045 22.8473 30.2374 23.208 30.2374 23.7073C30.2374 24.179 29.9045 24.5673 29.4329 24.5673C28.9335 24.5395 28.6284 24.179 28.6284 23.7073ZM9.15324 23.7073V22.3757H8.57065V22.7086C8.37642 22.459 8.09902 22.3202 7.73835 22.3202C6.98933 22.3202 6.40675 22.9028 6.40675 23.7073C6.40675 24.5118 6.98933 25.0944 7.73835 25.0944C8.12683 25.0944 8.40422 24.9558 8.57065 24.7061V25.0389H9.15324V23.7073ZM6.98933 23.7073C6.98933 23.2357 7.29452 22.8473 7.79383 22.8473C8.26546 22.8473 8.59846 23.208 8.59846 23.7073C8.59846 24.179 8.26546 24.5673 7.79383 24.5673C7.29452 24.5395 6.98933 24.179 6.98933 23.7073Z" fill="var(--fill-0, black)"/>
<path id="Vector_2" d="M11.7899 2.14326H20.5287V17.8454H11.7899V2.14326Z" fill="var(--fill-0, #FF5F00)"/>
<path id="Vector_3" d="M12.3454 9.98723C12.3454 6.79691 13.8434 3.96714 16.146 2.1361C14.4538 0.804499 12.3177 0 9.98736 0C4.46645 0 0 4.46645 0 9.98723C0 15.508 4.46645 19.9745 9.98723 19.9745C12.3176 19.9745 14.4537 19.17 16.146 17.8382C13.8434 16.035 12.3454 13.1776 12.3454 9.98723Z" fill="var(--fill-0, #EB001B)"/>
<path id="Vector_4" d="M32.3197 9.98723C32.3197 15.5079 27.8532 19.9745 22.3324 19.9745C20.0021 19.9745 17.866 19.17 16.1737 17.8382C18.504 16.0073 19.9744 13.1776 19.9744 9.98723C19.9744 6.79691 18.4762 3.96714 16.1737 2.1361C17.8659 0.804499 20.0021 0 22.3324 0C27.8532 0 32.3197 4.49425 32.3197 9.98723Z" fill="var(--fill-0, #F79E1B)"/>
</g>
</svg>
