<svg preserveAspectRatio="xMidYMid meet" width="42.943" height="42.943" overflow="visible" style="display: block;" viewBox="0 0 44.306 44.306" fill="none" xmlns="http://www.w3.org/2000/svg">
<g id="Group 3864">
<circle id="Ellipse 190" cx="22.153" cy="22.153" r="21.8122" fill="var(--fill-0, white)" fill-opacity="0.5" stroke="var(--stroke-0, #BDBEC9)" stroke-width="0.681631"/>
<g id="icon 2">
<path id="Vector" d="M15.6798 16.9606C15.674 16.8837 15.6814 16.8062 15.7016 16.733C15.7217 16.6598 15.7542 16.5925 15.7968 16.5355C15.8395 16.4785 15.8914 16.4329 15.9493 16.4018C16.0072 16.3707 16.0698 16.3546 16.133 16.3547H28.7771C28.8403 16.3546 28.9029 16.3707 28.9608 16.4018C29.0187 16.4329 29.0706 16.4785 29.1133 16.5355C29.1559 16.5925 29.1884 16.6598 29.2085 16.733C29.2287 16.8062 29.2361 16.8837 29.2303 16.9606L28.339 28.8015C28.3286 28.9393 28.2765 29.0673 28.1928 29.1606C28.1091 29.2538 27.9999 29.3056 27.8866 29.3057H24.74C24.6426 29.3058 24.5478 29.2677 24.4695 29.1971C24.3912 29.1265 24.3335 29.0271 24.305 28.9135L22.8901 23.2687C22.7582 22.7451 22.1519 22.7451 22.02 23.2687L20.6044 28.9135C20.5759 29.0269 20.5183 29.1262 20.4401 29.1968C20.362 29.2674 20.2673 29.3056 20.1701 29.3057H17.0235C16.9102 29.3056 16.801 29.2538 16.7173 29.1606C16.6336 29.0673 16.5815 28.9393 16.5711 28.8015L16.1217 22.8302L15.6798 16.9606Z" stroke="var(--stroke-0, #1E3ED7)" stroke-width="1.02245"/>
<path id="Vector_2" d="M16.3926 20.5175H17.5294C17.9314 20.5175 18.3169 20.3226 18.6011 19.9756C18.8854 19.6286 19.0451 19.1581 19.0451 18.6674V16.3547M28.8972 20.5175H27.3815C26.9795 20.5175 26.594 20.3226 26.3097 19.9756C26.0255 19.6286 25.8658 19.1581 25.8658 18.6674V16.3547" stroke="var(--stroke-0, #1E3ED7)" stroke-width="1.02245"/>
</g>
</g>
</svg>
