<svg preserveAspectRatio="xMidYMid meet" width="106.388" height="17.194" overflow="visible" style="display: block;" viewBox="0 0 106.388 17.1937" fill="none" xmlns="http://www.w3.org/2000/svg">
<g id="Frame 3925">
<path id="Vector" d="M9.03883 14.0667L3.45253 17.1937L4.7 10.9144L0 6.56765L6.35776 5.81362L9.03883 0L11.7199 5.81362L18.0777 6.56765L13.3777 10.9144L14.6251 17.1937L9.03883 14.0667Z" fill="var(--fill-0, #0641CD)"/>
<path id="Vector_2" d="M31.1165 14.0667L25.5302 17.1937L26.7777 10.9144L22.0777 6.56765L28.4354 5.81362L31.1165 0L33.7976 5.81362L40.1553 6.56765L35.4553 10.9144L36.7028 17.1937L31.1165 14.0667Z" fill="var(--fill-0, #0641CD)"/>
<path id="Vector_3" d="M53.1942 14.0667L47.6079 17.1937L48.8553 10.9144L44.1553 6.56765L50.5131 5.81362L53.1942 0L55.8752 5.81362L62.233 6.56765L57.533 10.9144L58.7805 17.1937L53.1942 14.0667Z" fill="var(--fill-0, #0641CD)"/>
<path id="Vector_4" d="M75.2718 14.0667L69.6855 17.1937L70.933 10.9144L66.233 6.56765L72.5908 5.81362L75.2718 0L77.9529 5.81362L84.3107 6.56765L79.6107 10.9144L80.8581 17.1937L75.2718 14.0667Z" fill="var(--fill-0, #0641CD)"/>
<path id="Vector_5" d="M97.3495 14.0667L91.7632 17.1937L93.0107 10.9144L88.3107 6.56765L94.6684 5.81362L97.3495 0L100.031 5.81362L106.388 6.56765L101.688 10.9144L102.936 17.1937L97.3495 14.0667Z" fill="var(--fill-0, #7C7C7C)"/>
</g>
</svg>
