<svg preserveAspectRatio="xMinYMin meet" width="83.458" height="21.836" overflow="visible" style="display: block;" viewBox="0 0 83.4582 21.836" fill="none" xmlns="http://www.w3.org/2000/svg">
<g id="Morldoro">
<mask id="path-1-inside-1_323_172" fill="white">
<path d="M15.7232 21.5209H9.42129V19.6618H10.4611V6.17583L8.00337 21.5209H5.23055L2.93037 5.89225V19.6618H4.0332V21.5209H0V19.6618H1.07132V1.89056H0V0H6.42791L7.87734 10.3981L9.42129 0H15.7232V1.89056H14.6834V19.6618H15.7232V21.5209Z"/>
<path d="M26.617 13.7066C26.617 16.3954 26.1759 18.4225 25.2936 19.7879C24.4114 21.1533 23.0985 21.836 21.355 21.836C19.6325 21.836 18.3196 21.1533 17.4163 19.7879C16.534 18.4225 16.0929 16.3954 16.0929 13.7066C16.0929 11.0388 16.534 9.02218 17.4163 7.65677C18.3196 6.29137 19.6325 5.60866 21.355 5.60866C23.0985 5.60866 24.4114 6.29137 25.2936 7.65677C26.1759 9.00117 26.617 11.0178 26.617 13.7066ZM22.5208 17.8028V9.67337C22.5208 8.64406 22.4263 7.96136 22.2372 7.62526C22.0692 7.28916 21.7751 7.12111 21.355 7.12111C20.9348 7.12111 20.6408 7.28916 20.4727 7.62526C20.3047 7.96136 20.2206 8.53903 20.2206 9.35828V17.8028C20.2206 18.8321 20.3047 19.5148 20.4727 19.8509C20.6618 20.187 20.9558 20.355 21.355 20.355C21.565 20.355 21.7436 20.3235 21.8906 20.2605C22.0377 20.1765 22.1532 20.0399 22.2372 19.8509C22.3423 19.6618 22.4158 19.4098 22.4578 19.0947C22.4998 18.7586 22.5208 18.3279 22.5208 17.8028Z"/>
<path d="M36.2207 8.34998C36.2207 9.16922 36.0422 9.82041 35.6851 10.3036C35.328 10.7867 34.8448 11.0283 34.2356 11.0283C33.7105 11.0283 33.2799 10.8602 32.9438 10.5241C32.6287 10.167 32.4711 9.68387 32.4711 9.07469C32.4711 8.7806 32.5026 8.50752 32.5656 8.25545C32.6287 8.00337 32.7442 7.69878 32.9122 7.34168C32.6602 7.59375 32.4501 7.82482 32.2821 8.03488C32.114 8.24495 31.9775 8.48652 31.8724 8.7596C31.7884 9.01167 31.7254 9.30576 31.6834 9.64186C31.6624 9.97796 31.6519 10.3771 31.6519 10.8392V19.8194H32.7547V21.5209H26.7994V19.8194H27.7762V7.65677H26.7994V5.95527H31.4943L31.6204 6.90055C32.3556 6.03929 33.1223 5.60866 33.9205 5.60866C34.6138 5.60866 35.1704 5.87124 35.5905 6.3964C36.0107 6.90055 36.2207 7.55174 36.2207 8.34998Z"/>
<path d="M41.8348 21.5209H36.0056V19.8194H36.9824V1.73301H35.8165V0H40.858V19.8194H41.8348V21.5209Z"/>
<path d="M52.9724 21.5209H48.4665L48.309 20.7331C47.8679 21.1533 47.4898 21.4369 47.1747 21.5839C46.8806 21.752 46.534 21.836 46.1348 21.836C44.7484 21.836 43.6981 21.1848 42.9839 19.8824C42.2907 18.58 41.9441 16.6579 41.9441 14.1162C41.9441 11.4064 42.2802 9.30576 42.9524 7.81432C43.6246 6.32287 44.5594 5.57715 45.7567 5.57715C46.2189 5.57715 46.618 5.65068 46.9541 5.79772C47.2902 5.94476 47.6788 6.19684 48.1199 6.55394V1.73301H47.1116V0H51.9956V19.8194H52.9724V21.5209ZM48.1199 16.0383V10.7132C48.1199 9.70488 48.0464 8.98016 47.8994 8.53903C47.7523 8.0979 47.5003 7.87734 47.1432 7.87734C46.9541 7.87734 46.7755 7.96136 46.6075 8.12941C46.4604 8.27646 46.3344 8.56004 46.2294 8.98016C46.1454 9.37928 46.0718 9.93595 46.0088 10.6502C45.9668 11.3644 45.9458 12.2886 45.9458 13.423C45.9458 14.7464 45.9668 15.8177 46.0088 16.6369C46.0718 17.4352 46.1454 18.0654 46.2294 18.5275C46.3344 18.9686 46.4604 19.2627 46.6075 19.4098C46.7545 19.5568 46.9226 19.6303 47.1116 19.6303C47.3217 19.6303 47.4898 19.5778 47.6158 19.4728C47.7418 19.3677 47.8364 19.1787 47.8994 18.9056C47.9834 18.6325 48.0359 18.2649 48.0569 17.8028C48.0989 17.3406 48.1199 16.7525 48.1199 16.0383Z"/>
<path d="M63.6085 13.7066C63.6085 16.3954 63.1674 18.4225 62.2851 19.7879C61.4028 21.1533 60.09 21.836 58.3464 21.836C56.6239 21.836 55.311 21.1533 54.4078 19.7879C53.5255 18.4225 53.0844 16.3954 53.0844 13.7066C53.0844 11.0388 53.5255 9.02218 54.4078 7.65677C55.311 6.29137 56.6239 5.60866 58.3464 5.60866C60.09 5.60866 61.4028 6.29137 62.2851 7.65677C63.1674 9.00117 63.6085 11.0178 63.6085 13.7066ZM59.5123 17.8028V9.67337C59.5123 8.64406 59.4178 7.96136 59.2287 7.62526C59.0607 7.28916 58.7666 7.12111 58.3464 7.12111C57.9263 7.12111 57.6322 7.28916 57.4642 7.62526C57.2961 7.96136 57.2121 8.53903 57.2121 9.35828V17.8028C57.2121 18.8321 57.2961 19.5148 57.4642 19.8509C57.6532 20.187 57.9473 20.355 58.3464 20.355C58.5565 20.355 58.7351 20.3235 58.8821 20.2605C59.0291 20.1765 59.1447 20.0399 59.2287 19.8509C59.3337 19.6618 59.4073 19.4098 59.4493 19.0947C59.4913 18.7586 59.5123 18.3279 59.5123 17.8028Z"/>
<path d="M73.2122 8.34998C73.2122 9.16922 73.0337 9.82041 72.6766 10.3036C72.3194 10.7867 71.8363 11.0283 71.2271 11.0283C70.702 11.0283 70.2713 10.8602 69.9352 10.5241C69.6201 10.167 69.4626 9.68387 69.4626 9.07469C69.4626 8.7806 69.4941 8.50752 69.5571 8.25545C69.6201 8.00337 69.7357 7.69878 69.9037 7.34168C69.6516 7.59375 69.4416 7.82482 69.2735 8.03488C69.1055 8.24495 68.9689 8.48652 68.8639 8.7596C68.7799 9.01167 68.7169 9.30576 68.6749 9.64186C68.6539 9.97796 68.6433 10.3771 68.6433 10.8392V19.8194H69.7462V21.5209H63.7909V19.8194H64.7677V7.65677H63.7909V5.95527H68.4858L68.6118 6.90055C69.3471 6.03929 70.1138 5.60866 70.912 5.60866C71.6052 5.60866 72.1619 5.87124 72.582 6.3964C73.0021 6.90055 73.2122 7.55174 73.2122 8.34998Z"/>
<path d="M83.4582 13.7066C83.4582 16.3954 83.017 18.4225 82.1348 19.7879C81.2525 21.1533 79.9396 21.836 78.1961 21.836C76.4736 21.836 75.1607 21.1533 74.2574 19.7879C73.3752 18.4225 72.934 16.3954 72.934 13.7066C72.934 11.0388 73.3752 9.02218 74.2574 7.65677C75.1607 6.29137 76.4736 5.60866 78.1961 5.60866C79.9396 5.60866 81.2525 6.29137 82.1348 7.65677C83.017 9.00117 83.4582 11.0178 83.4582 13.7066ZM79.3619 17.8028V9.67337C79.3619 8.64406 79.2674 7.96136 79.0784 7.62526C78.9103 7.28916 78.6162 7.12111 78.1961 7.12111C77.776 7.12111 77.4819 7.28916 77.3138 7.62526C77.1458 7.96136 77.0618 8.53903 77.0618 9.35828V17.8028C77.0618 18.8321 77.1458 19.5148 77.3138 19.8509C77.5029 20.187 77.797 20.355 78.1961 20.355C78.4062 20.355 78.5847 20.3235 78.7318 20.2605C78.8788 20.1765 78.9943 20.0399 79.0784 19.8509C79.1834 19.6618 79.2569 19.4098 79.2989 19.0947C79.3409 18.7586 79.3619 18.3279 79.3619 17.8028Z"/>
</mask>
<path d="M15.7232 21.5209H9.42129V19.6618H10.4611V6.17583L8.00337 21.5209H5.23055L2.93037 5.89225V19.6618H4.0332V21.5209H0V19.6618H1.07132V1.89056H0V0H6.42791L7.87734 10.3981L9.42129 0H15.7232V1.89056H14.6834V19.6618H15.7232V21.5209Z" fill="var(--fill-0, black)"/>
<path d="M26.617 13.7066C26.617 16.3954 26.1759 18.4225 25.2936 19.7879C24.4114 21.1533 23.0985 21.836 21.355 21.836C19.6325 21.836 18.3196 21.1533 17.4163 19.7879C16.534 18.4225 16.0929 16.3954 16.0929 13.7066C16.0929 11.0388 16.534 9.02218 17.4163 7.65677C18.3196 6.29137 19.6325 5.60866 21.355 5.60866C23.0985 5.60866 24.4114 6.29137 25.2936 7.65677C26.1759 9.00117 26.617 11.0178 26.617 13.7066ZM22.5208 17.8028V9.67337C22.5208 8.64406 22.4263 7.96136 22.2372 7.62526C22.0692 7.28916 21.7751 7.12111 21.355 7.12111C20.9348 7.12111 20.6408 7.28916 20.4727 7.62526C20.3047 7.96136 20.2206 8.53903 20.2206 9.35828V17.8028C20.2206 18.8321 20.3047 19.5148 20.4727 19.8509C20.6618 20.187 20.9558 20.355 21.355 20.355C21.565 20.355 21.7436 20.3235 21.8906 20.2605C22.0377 20.1765 22.1532 20.0399 22.2372 19.8509C22.3423 19.6618 22.4158 19.4098 22.4578 19.0947C22.4998 18.7586 22.5208 18.3279 22.5208 17.8028Z" fill="var(--fill-0, black)"/>
<path d="M36.2207 8.34998C36.2207 9.16922 36.0422 9.82041 35.6851 10.3036C35.328 10.7867 34.8448 11.0283 34.2356 11.0283C33.7105 11.0283 33.2799 10.8602 32.9438 10.5241C32.6287 10.167 32.4711 9.68387 32.4711 9.07469C32.4711 8.7806 32.5026 8.50752 32.5656 8.25545C32.6287 8.00337 32.7442 7.69878 32.9122 7.34168C32.6602 7.59375 32.4501 7.82482 32.2821 8.03488C32.114 8.24495 31.9775 8.48652 31.8724 8.7596C31.7884 9.01167 31.7254 9.30576 31.6834 9.64186C31.6624 9.97796 31.6519 10.3771 31.6519 10.8392V19.8194H32.7547V21.5209H26.7994V19.8194H27.7762V7.65677H26.7994V5.95527H31.4943L31.6204 6.90055C32.3556 6.03929 33.1223 5.60866 33.9205 5.60866C34.6138 5.60866 35.1704 5.87124 35.5905 6.3964C36.0107 6.90055 36.2207 7.55174 36.2207 8.34998Z" fill="var(--fill-0, black)"/>
<path d="M41.8348 21.5209H36.0056V19.8194H36.9824V1.73301H35.8165V0H40.858V19.8194H41.8348V21.5209Z" fill="var(--fill-0, black)"/>
<path d="M52.9724 21.5209H48.4665L48.309 20.7331C47.8679 21.1533 47.4898 21.4369 47.1747 21.5839C46.8806 21.752 46.534 21.836 46.1348 21.836C44.7484 21.836 43.6981 21.1848 42.9839 19.8824C42.2907 18.58 41.9441 16.6579 41.9441 14.1162C41.9441 11.4064 42.2802 9.30576 42.9524 7.81432C43.6246 6.32287 44.5594 5.57715 45.7567 5.57715C46.2189 5.57715 46.618 5.65068 46.9541 5.79772C47.2902 5.94476 47.6788 6.19684 48.1199 6.55394V1.73301H47.1116V0H51.9956V19.8194H52.9724V21.5209ZM48.1199 16.0383V10.7132C48.1199 9.70488 48.0464 8.98016 47.8994 8.53903C47.7523 8.0979 47.5003 7.87734 47.1432 7.87734C46.9541 7.87734 46.7755 7.96136 46.6075 8.12941C46.4604 8.27646 46.3344 8.56004 46.2294 8.98016C46.1454 9.37928 46.0718 9.93595 46.0088 10.6502C45.9668 11.3644 45.9458 12.2886 45.9458 13.423C45.9458 14.7464 45.9668 15.8177 46.0088 16.6369C46.0718 17.4352 46.1454 18.0654 46.2294 18.5275C46.3344 18.9686 46.4604 19.2627 46.6075 19.4098C46.7545 19.5568 46.9226 19.6303 47.1116 19.6303C47.3217 19.6303 47.4898 19.5778 47.6158 19.4728C47.7418 19.3677 47.8364 19.1787 47.8994 18.9056C47.9834 18.6325 48.0359 18.2649 48.0569 17.8028C48.0989 17.3406 48.1199 16.7525 48.1199 16.0383Z" fill="var(--fill-0, black)"/>
<path d="M63.6085 13.7066C63.6085 16.3954 63.1674 18.4225 62.2851 19.7879C61.4028 21.1533 60.09 21.836 58.3464 21.836C56.6239 21.836 55.311 21.1533 54.4078 19.7879C53.5255 18.4225 53.0844 16.3954 53.0844 13.7066C53.0844 11.0388 53.5255 9.02218 54.4078 7.65677C55.311 6.29137 56.6239 5.60866 58.3464 5.60866C60.09 5.60866 61.4028 6.29137 62.2851 7.65677C63.1674 9.00117 63.6085 11.0178 63.6085 13.7066ZM59.5123 17.8028V9.67337C59.5123 8.64406 59.4178 7.96136 59.2287 7.62526C59.0607 7.28916 58.7666 7.12111 58.3464 7.12111C57.9263 7.12111 57.6322 7.28916 57.4642 7.62526C57.2961 7.96136 57.2121 8.53903 57.2121 9.35828V17.8028C57.2121 18.8321 57.2961 19.5148 57.4642 19.8509C57.6532 20.187 57.9473 20.355 58.3464 20.355C58.5565 20.355 58.7351 20.3235 58.8821 20.2605C59.0291 20.1765 59.1447 20.0399 59.2287 19.8509C59.3337 19.6618 59.4073 19.4098 59.4493 19.0947C59.4913 18.7586 59.5123 18.3279 59.5123 17.8028Z" fill="var(--fill-0, black)"/>
<path d="M73.2122 8.34998C73.2122 9.16922 73.0337 9.82041 72.6766 10.3036C72.3194 10.7867 71.8363 11.0283 71.2271 11.0283C70.702 11.0283 70.2713 10.8602 69.9352 10.5241C69.6201 10.167 69.4626 9.68387 69.4626 9.07469C69.4626 8.7806 69.4941 8.50752 69.5571 8.25545C69.6201 8.00337 69.7357 7.69878 69.9037 7.34168C69.6516 7.59375 69.4416 7.82482 69.2735 8.03488C69.1055 8.24495 68.9689 8.48652 68.8639 8.7596C68.7799 9.01167 68.7169 9.30576 68.6749 9.64186C68.6539 9.97796 68.6433 10.3771 68.6433 10.8392V19.8194H69.7462V21.5209H63.7909V19.8194H64.7677V7.65677H63.7909V5.95527H68.4858L68.6118 6.90055C69.3471 6.03929 70.1138 5.60866 70.912 5.60866C71.6052 5.60866 72.1619 5.87124 72.582 6.3964C73.0021 6.90055 73.2122 7.55174 73.2122 8.34998Z" fill="var(--fill-0, black)"/>
<path d="M83.4582 13.7066C83.4582 16.3954 83.017 18.4225 82.1348 19.7879C81.2525 21.1533 79.9396 21.836 78.1961 21.836C76.4736 21.836 75.1607 21.1533 74.2574 19.7879C73.3752 18.4225 72.934 16.3954 72.934 13.7066C72.934 11.0388 73.3752 9.02218 74.2574 7.65677C75.1607 6.29137 76.4736 5.60866 78.1961 5.60866C79.9396 5.60866 81.2525 6.29137 82.1348 7.65677C83.017 9.00117 83.4582 11.0178 83.4582 13.7066ZM79.3619 17.8028V9.67337C79.3619 8.64406 79.2674 7.96136 79.0784 7.62526C78.9103 7.28916 78.6162 7.12111 78.1961 7.12111C77.776 7.12111 77.4819 7.28916 77.3138 7.62526C77.1458 7.96136 77.0618 8.53903 77.0618 9.35828V17.8028C77.0618 18.8321 77.1458 19.5148 77.3138 19.8509C77.5029 20.187 77.797 20.355 78.1961 20.355C78.4062 20.355 78.5847 20.3235 78.7318 20.2605C78.8788 20.1765 78.9943 20.0399 79.0784 19.8509C79.1834 19.6618 79.2569 19.4098 79.2989 19.0947C79.3409 18.7586 79.3619 18.3279 79.3619 17.8028Z" fill="var(--fill-0, black)"/>
<path d="M15.7232 21.5209H9.42129V19.6618H10.4611V6.17583L8.00337 21.5209H5.23055L2.93037 5.89225V19.6618H4.0332V21.5209H0V19.6618H1.07132V1.89056H0V0H6.42791L7.87734 10.3981L9.42129 0H15.7232V1.89056H14.6834V19.6618H15.7232V21.5209Z" stroke="var(--stroke-0, #D6D5DA)" stroke-width="0.545198" mask="url(#path-1-inside-1_323_172)"/>
<path d="M26.617 13.7066C26.617 16.3954 26.1759 18.4225 25.2936 19.7879C24.4114 21.1533 23.0985 21.836 21.355 21.836C19.6325 21.836 18.3196 21.1533 17.4163 19.7879C16.534 18.4225 16.0929 16.3954 16.0929 13.7066C16.0929 11.0388 16.534 9.02218 17.4163 7.65677C18.3196 6.29137 19.6325 5.60866 21.355 5.60866C23.0985 5.60866 24.4114 6.29137 25.2936 7.65677C26.1759 9.00117 26.617 11.0178 26.617 13.7066ZM22.5208 17.8028V9.67337C22.5208 8.64406 22.4263 7.96136 22.2372 7.62526C22.0692 7.28916 21.7751 7.12111 21.355 7.12111C20.9348 7.12111 20.6408 7.28916 20.4727 7.62526C20.3047 7.96136 20.2206 8.53903 20.2206 9.35828V17.8028C20.2206 18.8321 20.3047 19.5148 20.4727 19.8509C20.6618 20.187 20.9558 20.355 21.355 20.355C21.565 20.355 21.7436 20.3235 21.8906 20.2605C22.0377 20.1765 22.1532 20.0399 22.2372 19.8509C22.3423 19.6618 22.4158 19.4098 22.4578 19.0947C22.4998 18.7586 22.5208 18.3279 22.5208 17.8028Z" stroke="var(--stroke-0, #D6D5DA)" stroke-width="0.545198" mask="url(#path-1-inside-1_323_172)"/>
<path d="M36.2207 8.34998C36.2207 9.16922 36.0422 9.82041 35.6851 10.3036C35.328 10.7867 34.8448 11.0283 34.2356 11.0283C33.7105 11.0283 33.2799 10.8602 32.9438 10.5241C32.6287 10.167 32.4711 9.68387 32.4711 9.07469C32.4711 8.7806 32.5026 8.50752 32.5656 8.25545C32.6287 8.00337 32.7442 7.69878 32.9122 7.34168C32.6602 7.59375 32.4501 7.82482 32.2821 8.03488C32.114 8.24495 31.9775 8.48652 31.8724 8.7596C31.7884 9.01167 31.7254 9.30576 31.6834 9.64186C31.6624 9.97796 31.6519 10.3771 31.6519 10.8392V19.8194H32.7547V21.5209H26.7994V19.8194H27.7762V7.65677H26.7994V5.95527H31.4943L31.6204 6.90055C32.3556 6.03929 33.1223 5.60866 33.9205 5.60866C34.6138 5.60866 35.1704 5.87124 35.5905 6.3964C36.0107 6.90055 36.2207 7.55174 36.2207 8.34998Z" stroke="var(--stroke-0, #D6D5DA)" stroke-width="0.545198" mask="url(#path-1-inside-1_323_172)"/>
<path d="M41.8348 21.5209H36.0056V19.8194H36.9824V1.73301H35.8165V0H40.858V19.8194H41.8348V21.5209Z" stroke="var(--stroke-0, #D6D5DA)" stroke-width="0.545198" mask="url(#path-1-inside-1_323_172)"/>
<path d="M52.9724 21.5209H48.4665L48.309 20.7331C47.8679 21.1533 47.4898 21.4369 47.1747 21.5839C46.8806 21.752 46.534 21.836 46.1348 21.836C44.7484 21.836 43.6981 21.1848 42.9839 19.8824C42.2907 18.58 41.9441 16.6579 41.9441 14.1162C41.9441 11.4064 42.2802 9.30576 42.9524 7.81432C43.6246 6.32287 44.5594 5.57715 45.7567 5.57715C46.2189 5.57715 46.618 5.65068 46.9541 5.79772C47.2902 5.94476 47.6788 6.19684 48.1199 6.55394V1.73301H47.1116V0H51.9956V19.8194H52.9724V21.5209ZM48.1199 16.0383V10.7132C48.1199 9.70488 48.0464 8.98016 47.8994 8.53903C47.7523 8.0979 47.5003 7.87734 47.1432 7.87734C46.9541 7.87734 46.7755 7.96136 46.6075 8.12941C46.4604 8.27646 46.3344 8.56004 46.2294 8.98016C46.1454 9.37928 46.0718 9.93595 46.0088 10.6502C45.9668 11.3644 45.9458 12.2886 45.9458 13.423C45.9458 14.7464 45.9668 15.8177 46.0088 16.6369C46.0718 17.4352 46.1454 18.0654 46.2294 18.5275C46.3344 18.9686 46.4604 19.2627 46.6075 19.4098C46.7545 19.5568 46.9226 19.6303 47.1116 19.6303C47.3217 19.6303 47.4898 19.5778 47.6158 19.4728C47.7418 19.3677 47.8364 19.1787 47.8994 18.9056C47.9834 18.6325 48.0359 18.2649 48.0569 17.8028C48.0989 17.3406 48.1199 16.7525 48.1199 16.0383Z" stroke="var(--stroke-0, #D6D5DA)" stroke-width="0.545198" mask="url(#path-1-inside-1_323_172)"/>
<path d="M63.6085 13.7066C63.6085 16.3954 63.1674 18.4225 62.2851 19.7879C61.4028 21.1533 60.09 21.836 58.3464 21.836C56.6239 21.836 55.311 21.1533 54.4078 19.7879C53.5255 18.4225 53.0844 16.3954 53.0844 13.7066C53.0844 11.0388 53.5255 9.02218 54.4078 7.65677C55.311 6.29137 56.6239 5.60866 58.3464 5.60866C60.09 5.60866 61.4028 6.29137 62.2851 7.65677C63.1674 9.00117 63.6085 11.0178 63.6085 13.7066ZM59.5123 17.8028V9.67337C59.5123 8.64406 59.4178 7.96136 59.2287 7.62526C59.0607 7.28916 58.7666 7.12111 58.3464 7.12111C57.9263 7.12111 57.6322 7.28916 57.4642 7.62526C57.2961 7.96136 57.2121 8.53903 57.2121 9.35828V17.8028C57.2121 18.8321 57.2961 19.5148 57.4642 19.8509C57.6532 20.187 57.9473 20.355 58.3464 20.355C58.5565 20.355 58.7351 20.3235 58.8821 20.2605C59.0291 20.1765 59.1447 20.0399 59.2287 19.8509C59.3337 19.6618 59.4073 19.4098 59.4493 19.0947C59.4913 18.7586 59.5123 18.3279 59.5123 17.8028Z" stroke="var(--stroke-0, #D6D5DA)" stroke-width="0.545198" mask="url(#path-1-inside-1_323_172)"/>
<path d="M73.2122 8.34998C73.2122 9.16922 73.0337 9.82041 72.6766 10.3036C72.3194 10.7867 71.8363 11.0283 71.2271 11.0283C70.702 11.0283 70.2713 10.8602 69.9352 10.5241C69.6201 10.167 69.4626 9.68387 69.4626 9.07469C69.4626 8.7806 69.4941 8.50752 69.5571 8.25545C69.6201 8.00337 69.7357 7.69878 69.9037 7.34168C69.6516 7.59375 69.4416 7.82482 69.2735 8.03488C69.1055 8.24495 68.9689 8.48652 68.8639 8.7596C68.7799 9.01167 68.7169 9.30576 68.6749 9.64186C68.6539 9.97796 68.6433 10.3771 68.6433 10.8392V19.8194H69.7462V21.5209H63.7909V19.8194H64.7677V7.65677H63.7909V5.95527H68.4858L68.6118 6.90055C69.3471 6.03929 70.1138 5.60866 70.912 5.60866C71.6052 5.60866 72.1619 5.87124 72.582 6.3964C73.0021 6.90055 73.2122 7.55174 73.2122 8.34998Z" stroke="var(--stroke-0, #D6D5DA)" stroke-width="0.545198" mask="url(#path-1-inside-1_323_172)"/>
<path d="M83.4582 13.7066C83.4582 16.3954 83.017 18.4225 82.1348 19.7879C81.2525 21.1533 79.9396 21.836 78.1961 21.836C76.4736 21.836 75.1607 21.1533 74.2574 19.7879C73.3752 18.4225 72.934 16.3954 72.934 13.7066C72.934 11.0388 73.3752 9.02218 74.2574 7.65677C75.1607 6.29137 76.4736 5.60866 78.1961 5.60866C79.9396 5.60866 81.2525 6.29137 82.1348 7.65677C83.017 9.00117 83.4582 11.0178 83.4582 13.7066ZM79.3619 17.8028V9.67337C79.3619 8.64406 79.2674 7.96136 79.0784 7.62526C78.9103 7.28916 78.6162 7.12111 78.1961 7.12111C77.776 7.12111 77.4819 7.28916 77.3138 7.62526C77.1458 7.96136 77.0618 8.53903 77.0618 9.35828V17.8028C77.0618 18.8321 77.1458 19.5148 77.3138 19.8509C77.5029 20.187 77.797 20.355 78.1961 20.355C78.4062 20.355 78.5847 20.3235 78.7318 20.2605C78.8788 20.1765 78.9943 20.0399 79.0784 19.8509C79.1834 19.6618 79.2569 19.4098 79.2989 19.0947C79.3409 18.7586 79.3619 18.3279 79.3619 17.8028Z" stroke="var(--stroke-0, #D6D5DA)" stroke-width="0.545198" mask="url(#path-1-inside-1_323_172)"/>
</g>
</svg>
