<svg preserveAspectRatio="xMidYMid meet" width="51.89" height="16.756" overflow="visible" style="display: block;" viewBox="0 0 51.8902 16.7565" fill="none" xmlns="http://www.w3.org/2000/svg">
<g id="visa logo">
<path id="Vector" d="M26.8363 5.35685C26.8067 7.69109 28.9166 8.99362 30.5059 9.76812C32.1389 10.5627 32.6874 11.0723 32.6809 11.7829C32.6687 12.8704 31.3784 13.3504 30.1709 13.369C28.0643 13.4016 26.8394 12.8002 25.8656 12.3454L25.1067 15.8964C26.0837 16.3466 27.8928 16.7392 29.7687 16.7565C34.1723 16.7565 37.0532 14.5828 37.0688 11.2125C37.0861 6.93524 31.1525 6.69849 31.1931 4.78666C31.2071 4.20695 31.7602 3.58833 32.9724 3.43103C33.5723 3.35158 35.2286 3.29077 37.1063 4.15547L37.8433 0.719774C36.8335 0.352084 35.5356 3.33353e-07 33.9198 3.33353e-07C29.775 3.33353e-07 26.8599 2.2033 26.8363 5.35685ZM44.9251 0.295936C44.121 0.295936 43.4434 0.764974 43.141 1.48475L36.8507 16.5041H41.2511L42.1267 14.0841H47.5038L48.0118 16.5041H51.8902L48.5058 0.295936H44.9251ZM45.5407 4.67437L46.8106 10.7607H43.3327L45.5407 4.67437ZM21.5012 0.296139L18.0326 16.5039H22.2258L25.6927 0.295734L21.5012 0.296139ZM15.2981 0.296139L10.9336 11.3279L9.16814 1.94771C8.96099 0.900579 8.14291 0.295936 7.23442 0.295936H0.0999291L0 0.766596C1.46468 1.08442 3.12881 1.59704 4.13702 2.14554C4.75403 2.48059 4.92997 2.77349 5.13267 3.56968L8.47654 16.5041H12.9077L19.7012 0.295936L15.2981 0.296139Z" fill="url(#paint0_linear_329_200)"/>
</g>
<defs>
<linearGradient id="paint0_linear_329_200" x1="23.856" y1="17.0926" x2="24.341" y2="-0.116535" gradientUnits="userSpaceOnUse">
<stop stop-color="#222357"/>
<stop offset="1" stop-color="#254AA5"/>
</linearGradient>
</defs>
</svg>
