<svg preserveAspectRatio="xMidYMid meet" width="78" height="26" overflow="visible" style="display: block;" viewBox="0 0 78 26" fill="none" xmlns="http://www.w3.org/2000/svg">
<g id="Frame 3890">
<path id="Vector" d="M13.5029 2.17683C13.7132 3.55841 14.2854 4.95019 15.3555 5.98738V5.9864C16.4151 7.05525 17.8119 7.5924 19.167 7.83992V10.1378C18.177 10.0236 17.2144 9.77184 16.3252 9.35066L16.3135 9.34577L15.9541 9.16804C15.5987 8.97943 15.2508 8.75747 14.8809 8.51081L13.5859 7.64753V9.20417C13.5859 12.0294 13.5858 14.8684 13.5693 17.6739C13.5078 18.8834 13.1078 20.0745 12.4209 21.0538L12.4111 21.0694C11.3092 22.7149 9.37649 23.7854 7.42578 23.8145L7.40723 23.8155L7.3877 23.8165C6.20717 23.8884 4.98991 23.5563 3.95215 22.9337L3.94922 22.9327L3.63574 22.7315C2.1003 21.6827 1.02607 19.9073 0.856445 18.043C0.833438 17.7093 0.827355 17.3757 0.838867 17.0421L0.856445 16.7081C1.00778 15.0824 1.81911 13.5237 3.0498 12.4688L3.05859 12.461C4.28722 11.3746 5.9572 10.7937 7.57324 10.9024C7.57181 11.7648 7.55506 12.6109 7.54492 13.4854C6.74329 13.4351 5.91398 13.6046 5.20117 14.0352L5.01953 14.1534C4.33414 14.598 3.82133 15.2307 3.49902 15.9551L3.38281 16.2423C3.10216 16.9443 3.1765 17.6979 3.19043 18.1436L3.19238 18.1905L3.19922 18.2374C3.48665 20.2083 5.33288 21.9032 7.41211 21.7305C8.78861 21.7147 10.0595 20.8883 10.7354 19.7618L10.7422 19.751C10.8991 19.48 11.2247 18.962 11.252 18.336C11.3524 16.5819 11.3041 14.7954 11.3203 13.0938V13.086C11.3203 9.44709 11.3206 5.80997 11.334 2.18659C11.6806 2.18515 12.0282 2.18269 12.3779 2.18269C12.7509 2.18269 13.1265 2.17863 13.5029 2.17683Z" fill="var(--fill-0, black)" stroke="var(--stroke-0, black)" stroke-width="1.66597"/>
<path id="Vector_2" d="M65 0.40625C68.5314 0.40625 68.9645 0.418375 70.3379 0.480469V0.481445C71.6856 0.547917 72.5851 0.75597 73.3672 1.05957L73.3721 1.06152C74.1849 1.36447 74.9209 1.8447 75.5254 2.4668L75.5322 2.47363C76.1521 3.08125 76.6318 3.81686 76.9385 4.62891L76.9395 4.63184C77.2389 5.41056 77.4521 6.31539 77.5186 7.66211C77.5766 9.03508 77.5937 9.47065 77.5938 13C77.5938 16.5314 77.5807 16.9644 77.5186 18.3379C77.4521 19.6846 77.24 20.5851 76.9395 21.3691L76.9385 21.3721C76.6355 22.1849 76.1553 22.9209 75.5332 23.5254L75.5264 23.5322C74.9188 24.1521 74.1831 24.6318 73.3711 24.9385L73.3691 24.9395C72.6827 25.2019 71.9074 25.398 70.8223 25.4873L70.3379 25.5186C68.9649 25.5766 68.5293 25.5938 65 25.5938C61.4677 25.5937 61.0354 25.5807 59.6611 25.5186H59.6621C58.3154 25.4521 57.4149 25.24 56.6309 24.9395L56.6289 24.9385L56.3271 24.8164C55.6339 24.5114 55.0044 24.0753 54.4736 23.5322L54.4678 23.5264C53.8479 22.9188 53.3682 22.1831 53.0615 21.3711L53.0596 21.3672C52.7939 20.6827 52.6012 19.9084 52.5127 18.8223L52.4814 18.3379C52.4234 16.9649 52.4062 16.5293 52.4062 13C52.4063 9.46857 52.4193 9.03556 52.4814 7.66211C52.5479 6.31044 52.7559 5.415 53.0596 4.63281L53.0615 4.62891C53.367 3.81651 53.8471 3.08029 54.4678 2.47363L54.4736 2.46777C55.0812 1.84786 55.8169 1.36822 56.6289 1.06152L56.6328 1.05957C57.415 0.755924 58.3104 0.547911 59.6621 0.481445L59.6611 0.480469C61.0348 0.422358 61.4699 0.40625 65 0.40625ZM64.9463 1.89648C61.4686 1.89648 61.0571 1.91407 59.6719 1.96387L59.666 1.96484C58.5158 2.02226 57.8179 2.19829 57.3281 2.37109L57.1309 2.44434C56.4549 2.69601 55.9833 3.02256 55.4961 3.50977C55.007 3.99974 54.6805 4.46918 54.4336 5.14453C54.2335 5.64291 54.0169 6.38481 53.9473 7.69531V7.70312C53.9008 9.08772 53.8789 9.51597 53.8789 12.9814C53.8789 16.4486 53.9008 16.8763 53.9473 18.2441V18.251C54.0081 19.3974 54.1818 20.1102 54.3584 20.6035L54.4336 20.8027C54.6794 21.4619 55.0034 21.9438 55.4961 22.4365C55.9904 22.9309 56.461 23.2354 57.127 23.501L57.1309 23.502C57.6291 23.6957 58.3694 23.9158 59.6768 23.9863H59.6797C61.0692 24.0501 61.4819 24.0674 64.9639 24.0674C68.4461 24.0674 68.8592 24.0501 70.2461 23.9912V23.9922L70.248 23.9912C71.561 23.9299 72.3038 23.7095 72.7988 23.5137C73.4159 23.2838 73.9754 22.9223 74.4375 22.4531L74.4385 22.4521C74.9308 21.9509 75.2338 21.4786 75.499 20.8213L75.501 20.8164C75.6945 20.3188 75.9148 19.5874 75.9854 18.2793L75.9863 18.2764C76.0501 16.8957 76.0664 16.4733 76.0664 13.001C76.0664 9.52841 76.0501 9.10638 75.9912 7.72656V7.72461L75.9609 7.26074C75.8755 6.24295 75.6862 5.62913 75.5166 5.19336H75.5176C75.319 4.64861 75.0147 4.14899 74.623 3.72363L74.4502 3.5459C73.9899 3.07676 73.4316 2.71512 72.8154 2.48633H72.8164C72.3179 2.29153 71.5848 2.07116 70.2754 2.00977H70.2744C68.9116 1.95164 68.4839 1.93401 65.127 1.93359L65.0742 1.89648H64.9463ZM65 6.73438C65.8231 6.73407 66.6389 6.89608 67.3994 7.21094C68.1597 7.52579 68.8507 7.98743 69.4326 8.56934C70.0145 9.15131 70.4762 9.84213 70.791 10.6025C71.1059 11.3631 71.2679 12.1788 71.2676 13.002C71.2679 13.825 71.1058 14.6399 70.791 15.4004C70.4762 16.1609 70.0147 16.8525 69.4326 17.4346C68.8507 18.0165 68.1598 18.4781 67.3994 18.793C66.6389 19.1078 65.8231 19.2698 65 19.2695L64.6914 19.2617C63.9736 19.2266 63.266 19.0684 62.6006 18.793C61.8402 18.4781 61.1493 18.0165 60.5674 17.4346C59.9853 16.8525 59.5238 16.1609 59.209 15.4004C58.8942 14.6399 58.7321 13.825 58.7324 13.002C58.7321 12.1788 58.8941 11.3631 59.209 10.6025C59.5238 9.84213 59.9855 9.15131 60.5674 8.56934C61.1493 7.98743 61.8403 7.52579 62.6006 7.21094C63.266 6.93546 63.9736 6.77633 64.6914 6.74121L65 6.73438ZM65 8.26172C62.3801 8.26172 60.2598 10.382 60.2598 13.002C60.2599 15.6217 62.3802 17.7412 65 17.7412C67.6198 17.7412 69.7401 15.6217 69.7402 13.002C69.7402 10.382 67.6199 8.26172 65 8.26172ZM71.9404 4.91016C72.537 4.91016 73.0315 5.36571 73.0908 5.94434L73.0967 6.06152C73.0962 6.36772 72.9745 6.66151 72.7578 6.87793C72.541 7.09448 72.2469 7.21582 71.9404 7.21582C71.789 7.21582 71.6389 7.18588 71.499 7.12793C71.3592 7.06998 71.232 6.98495 71.125 6.87793C71.018 6.77089 70.9329 6.64373 70.875 6.50391C70.8171 6.36406 70.7871 6.21385 70.7871 6.0625C70.7872 5.91119 70.8171 5.76089 70.875 5.62109C70.9329 5.48133 71.018 5.35405 71.125 5.24707C71.232 5.14007 71.3592 5.05499 71.499 4.99707C71.6389 4.93913 71.789 4.91016 71.9404 4.91016Z" fill="var(--fill-0, black)" stroke="var(--stroke-0, black)" stroke-width="0.812602"/>
</g>
</svg>
