<svg preserveAspectRatio="xMidYMid meet" width="14.555" height="17.275" overflow="visible" style="display: block;" viewBox="0 0 14.5546 17.2752" fill="none" xmlns="http://www.w3.org/2000/svg">
<path id="Vector" d="M12.1267 16.5821C11.1863 17.4938 10.1595 17.3498 9.17111 16.918C8.12513 16.4766 7.16552 16.4574 6.06196 16.918C4.68012 17.513 3.95081 17.3402 3.12554 16.5821C-1.55738 11.7553 -0.866457 4.40463 4.44981 4.13594C5.74529 4.20311 6.64733 4.84605 7.40542 4.90363C8.53777 4.67332 9.62213 4.01119 10.8312 4.09755C12.2803 4.21271 13.3742 4.78848 14.0939 5.82486C11.0999 7.61934 11.8101 11.5634 14.5546 12.6669C14.0076 14.1063 13.2975 15.5362 12.1171 16.5917L12.1267 16.5821ZM7.30946 4.07836C7.16552 1.93842 8.90242 0.172731 10.8984 0C11.1767 2.47581 8.65292 4.31827 7.30946 4.07836Z" fill="var(--fill-0, black)"/>
</svg>
