<svg preserveAspectRatio="xMidYMid meet" width="63" height="63" overflow="visible" style="display: block;" viewBox="0 0 65 65" fill="none" xmlns="http://www.w3.org/2000/svg">
<g id="Group 3877">
<circle id="Ellipse 262" cx="32.5" cy="32.5" r="32" fill="var(--fill-0, white)" fill-opacity="0.5" stroke="var(--stroke-0, white)"/>
<g id="Group 3837">
<path id="Vector" d="M31.2726 43.5364V23.4636C31.2726 23.0755 31.1184 22.7032 30.844 22.4287C30.5695 22.1542 30.1972 22 29.809 22H26.4636C26.0754 22 25.7031 22.1542 25.4286 22.4287C25.1541 22.7032 24.9999 23.0755 24.9999 23.4636V43.5364C24.9999 43.9245 25.1541 44.2968 25.4286 44.5713C25.7031 44.8458 26.0754 45 26.4636 45H29.809C30.1972 45 30.5695 44.8458 30.844 44.5713C31.1184 44.2968 31.2726 43.9245 31.2726 43.5364ZM26.4636 23.2545H29.809C29.8645 23.2545 29.9176 23.2766 29.9569 23.3158C29.9961 23.355 30.0181 23.4082 30.0181 23.4636V28.6909H26.2545V23.4636C26.2545 23.4082 26.2765 23.355 26.3157 23.3158C26.3549 23.2766 26.4081 23.2545 26.4636 23.2545ZM26.4636 43.7455C26.4081 43.7455 26.3549 43.7234 26.3157 43.6842C26.2765 43.645 26.2545 43.5918 26.2545 43.5364V29.9455H30.0181V43.5364C30.0181 43.5918 29.9961 43.645 29.9569 43.6842C29.9176 43.7234 29.8645 43.7455 29.809 43.7455H26.4636Z" fill="var(--fill-0, #1E3ED7)"/>
<path id="Vector_2" d="M41.3088 43.5364V23.4636C41.3088 23.0755 41.1546 22.7032 40.8801 22.4287C40.6056 22.1542 40.2334 22 39.8452 22H36.4997C36.1115 22 35.7393 22.1542 35.4648 22.4287C35.1903 22.7032 35.0361 23.0755 35.0361 23.4636V43.5364C35.0361 43.9245 35.1903 44.2968 35.4648 44.5713C35.7393 44.8458 36.1115 45 36.4997 45H39.8452C40.2334 45 40.6056 44.8458 40.8801 44.5713C41.1546 44.2968 41.3088 43.9245 41.3088 43.5364ZM36.4997 23.2545H39.8452C39.9006 23.2545 39.9538 23.2766 39.993 23.3158C40.0322 23.355 40.0543 23.4082 40.0543 23.4636V28.6909H36.2906V23.4636C36.2906 23.4082 36.3127 23.355 36.3519 23.3158C36.3911 23.2766 36.4443 23.2545 36.4997 23.2545ZM36.4997 43.7455C36.4443 43.7455 36.3911 43.7234 36.3519 43.6842C36.3127 43.645 36.2906 43.5918 36.2906 43.5364V29.9455H40.0543V43.5364C40.0543 43.5918 40.0322 43.645 39.993 43.6842C39.9538 43.7234 39.9006 43.7455 39.8452 43.7455H36.4997Z" fill="var(--fill-0, #1E3ED7)"/>
</g>
</g>
</svg>
