<svg preserveAspectRatio="xMidYMid meet" width="18.921" height="18.921" overflow="visible" style="display: block;" viewBox="0 0 18.9205 18.9205" fill="none" xmlns="http://www.w3.org/2000/svg">
<g id="Group 3807">
<path id="Vector" d="M18.7365 7.60746H17.9745V7.5682H9.46025V11.3523H14.8067C14.0267 13.5551 11.9308 15.1364 9.46025 15.1364C6.3256 15.1364 3.7841 12.5949 3.7841 9.46025C3.7841 6.3256 6.3256 3.7841 9.46025 3.7841C10.9072 3.7841 12.2236 4.32996 13.2259 5.22159L15.9017 2.54575C14.2121 0.971095 11.9521 0 9.46025 0C4.23583 0 0 4.23583 0 9.46025C0 14.6847 4.23583 18.9205 9.46025 18.9205C14.6847 18.9205 18.9205 14.6847 18.9205 9.46025C18.9205 8.82594 18.8552 8.20677 18.7365 7.60746Z" fill="var(--fill-0, #FFC107)"/>
<path id="Vector_2" d="M1.09148 5.05698L4.19964 7.33643C5.04066 5.25422 7.07745 3.7841 9.46096 3.7841C10.9079 3.7841 12.2243 4.32996 13.2266 5.22159L15.9024 2.54575C14.2128 0.971095 11.9528 0 9.46096 0C5.82728 0 2.67607 2.05146 1.09148 5.05698Z" fill="var(--fill-0, #FF3D00)"/>
<path id="Vector_3" d="M9.4579 18.9099C11.9015 18.9099 14.1218 17.9747 15.8005 16.454L12.8726 13.9764C11.891 14.7233 10.6913 15.1271 9.4579 15.1258C6.99729 15.1258 4.90799 13.5568 4.1209 11.3672L1.03591 13.7441C2.60158 16.8078 5.78117 18.9099 9.4579 18.9099Z" fill="var(--fill-0, #4CAF50)"/>
<path id="Vector_4" d="M18.7364 7.60419H17.9744V7.56493H9.46013V11.349H14.8066C14.4335 12.3974 13.7614 13.3135 12.8734 13.9842L12.8748 13.9832L15.8028 16.4609C15.5956 16.6491 18.9204 14.1871 18.9204 9.45698C18.9204 8.82267 18.8551 8.20349 18.7364 7.60419Z" fill="var(--fill-0, #1976D2)"/>
</g>
</svg>
