<svg preserveAspectRatio="xMinYMin meet" width="153.079" height="40.0515" overflow="visible" style="display: block;" viewBox="0 0 153.079 40.0515" fill="none" xmlns="http://www.w3.org/2000/svg">
<g id="Morldoro">
<mask id="path-1-inside-1_258_431" fill="white">
<path d="M28.8394 39.4735H17.2805V36.0637H19.1877V11.3277L14.6798 39.4735H9.59386L5.37487 10.8075V36.0637H7.39768V39.4735H0V36.0637H1.96501V3.46766H0V0H11.79L14.4486 19.0721L17.2805 0H28.8394V3.46766H26.9322V36.0637H28.8394V39.4735Z"/>
<path d="M48.8209 25.1405C48.8209 30.0723 48.0118 33.7904 46.3935 36.2948C44.7753 38.7993 42.3672 40.0515 39.1692 40.0515C36.0098 40.0515 33.6017 38.7993 31.9449 36.2948C30.3267 33.7904 29.5176 30.0723 29.5176 25.1405C29.5176 20.2473 30.3267 16.5484 31.9449 14.044C33.6017 11.5396 36.0098 10.2874 39.1692 10.2874C42.3672 10.2874 44.7753 11.5396 46.3935 14.044C48.0118 16.5099 48.8209 20.2088 48.8209 25.1405ZM41.3076 32.6538V17.7429C41.3076 15.8549 41.1342 14.6027 40.7875 13.9862C40.4792 13.3698 39.9398 13.0615 39.1692 13.0615C38.3986 13.0615 37.8592 13.3698 37.551 13.9862C37.2427 14.6027 37.0886 15.6623 37.0886 17.1649V32.6538C37.0886 34.5418 37.2427 35.794 37.551 36.4104C37.8977 37.0269 38.4372 37.3351 39.1692 37.3351C39.5545 37.3351 39.882 37.2774 40.1517 37.1618C40.4214 37.0076 40.6333 36.7572 40.7875 36.4104C40.9801 36.0637 41.115 35.6013 41.192 35.0234C41.2691 34.4069 41.3076 33.617 41.3076 32.6538Z"/>
<path d="M66.436 15.3155C66.436 16.8182 66.1084 18.0126 65.4534 18.8988C64.7984 19.7849 63.9123 20.228 62.7949 20.228C61.8317 20.228 61.0418 19.9198 60.4253 19.3033C59.8474 18.6483 59.5584 17.7621 59.5584 16.6448C59.5584 16.1054 59.6162 15.6045 59.7318 15.1421C59.8474 14.6798 60.0593 14.1211 60.3675 13.4661C59.9052 13.9284 59.5199 14.3523 59.2117 14.7376C58.9034 15.1229 58.653 15.5659 58.4603 16.0668C58.3062 16.5292 58.1906 17.0686 58.1136 17.6851C58.075 18.3015 58.0558 19.0336 58.0558 19.8813V36.3526H60.0786V39.4735H49.1554V36.3526H50.9471V14.044H49.1554V10.9231H57.7668L57.998 12.657C59.3465 11.0773 60.7528 10.2874 62.217 10.2874C63.4884 10.2874 64.5095 10.769 65.2801 11.7323C66.0507 12.657 66.436 13.8514 66.436 15.3155Z"/>
<path d="M76.7333 39.4735H66.0413V36.3526H67.8329V3.17869H65.6946V0H74.9417V36.3526H76.7333V39.4735Z"/>
<path d="M97.1618 39.4735H88.8972L88.6082 38.0287C87.7991 38.7993 87.1056 39.3194 86.5276 39.5891C85.9882 39.8974 85.3525 40.0515 84.6204 40.0515C82.0774 40.0515 80.151 38.8571 78.841 36.4682C77.5695 34.0794 76.9338 30.5539 76.9338 25.8919C76.9338 20.9216 77.5502 17.0686 78.7832 14.333C80.0161 11.5974 81.7307 10.2296 83.9269 10.2296C84.7745 10.2296 85.5066 10.3645 86.1231 10.6342C86.7395 10.9039 87.4523 11.3662 88.2614 12.0212V3.17869H86.412V0H95.3701V36.3526H97.1618V39.4735ZM88.2614 29.4173V19.6501C88.2614 17.8007 88.1266 16.4714 87.8569 15.6623C87.5872 14.8531 87.1248 14.4486 86.4698 14.4486C86.1231 14.4486 85.7955 14.6027 85.4873 14.9109C85.2176 15.1806 84.9864 15.7008 84.7938 16.4714C84.6397 17.2035 84.5048 18.2245 84.3892 19.5345C84.3122 20.8445 84.2736 22.5398 84.2736 24.6204C84.2736 27.0478 84.3122 29.0128 84.3892 30.5154C84.5048 31.9795 84.6397 33.1354 84.7938 33.9831C84.9864 34.7922 85.2176 35.3316 85.4873 35.6013C85.757 35.871 86.0653 36.0059 86.412 36.0059C86.7973 36.0059 87.1056 35.9096 87.3367 35.7169C87.5679 35.5243 87.7413 35.1775 87.8569 34.6766C88.011 34.1757 88.1073 33.5015 88.1459 32.6538C88.2229 31.8062 88.2614 30.7273 88.2614 29.4173Z"/>
<path d="M116.671 25.1405C116.671 30.0723 115.861 33.7904 114.243 36.2948C112.625 38.7993 110.217 40.0515 107.019 40.0515C103.859 40.0515 101.451 38.7993 99.7946 36.2948C98.1763 33.7904 97.3672 30.0723 97.3672 25.1405C97.3672 20.2473 98.1763 16.5484 99.7946 14.044C101.451 11.5396 103.859 10.2874 107.019 10.2874C110.217 10.2874 112.625 11.5396 114.243 14.044C115.861 16.5099 116.671 20.2088 116.671 25.1405ZM109.157 32.6538V17.7429C109.157 15.8549 108.984 14.6027 108.637 13.9862C108.329 13.3698 107.789 13.0615 107.019 13.0615C106.248 13.0615 105.709 13.3698 105.401 13.9862C105.092 14.6027 104.938 15.6623 104.938 17.1649V32.6538C104.938 34.5418 105.092 35.794 105.401 36.4104C105.747 37.0269 106.287 37.3351 107.019 37.3351C107.404 37.3351 107.732 37.2774 108.001 37.1618C108.271 37.0076 108.483 36.7572 108.637 36.4104C108.83 36.0637 108.965 35.6013 109.042 35.0234C109.119 34.4069 109.157 33.617 109.157 32.6538Z"/>
<path d="M134.286 15.3155C134.286 16.8182 133.958 18.0126 133.303 18.8988C132.648 19.7849 131.762 20.228 130.645 20.228C129.681 20.228 128.891 19.9198 128.275 19.3033C127.697 18.6483 127.408 17.7621 127.408 16.6448C127.408 16.1054 127.466 15.6045 127.581 15.1421C127.697 14.6798 127.909 14.1211 128.217 13.4661C127.755 13.9284 127.37 14.3523 127.061 14.7376C126.753 15.1229 126.503 15.5659 126.31 16.0668C126.156 16.5292 126.04 17.0686 125.963 17.6851C125.925 18.3015 125.905 19.0336 125.905 19.8813V36.3526H127.928V39.4735H117.005V36.3526H118.797V14.044H117.005V10.9231H125.616L125.848 12.657C127.196 11.0773 128.602 10.2874 130.067 10.2874C131.338 10.2874 132.359 10.769 133.13 11.7323C133.9 12.657 134.286 13.8514 134.286 15.3155Z"/>
<path d="M153.079 25.1405C153.079 30.0723 152.27 33.7904 150.651 36.2948C149.033 38.7993 146.625 40.0515 143.427 40.0515C140.268 40.0515 137.86 38.7993 136.203 36.2948C134.585 33.7904 133.775 30.0723 133.775 25.1405C133.775 20.2473 134.585 16.5484 136.203 14.044C137.86 11.5396 140.268 10.2874 143.427 10.2874C146.625 10.2874 149.033 11.5396 150.651 14.044C152.27 16.5099 153.079 20.2088 153.079 25.1405ZM145.565 32.6538V17.7429C145.565 15.8549 145.392 14.6027 145.045 13.9862C144.737 13.3698 144.198 13.0615 143.427 13.0615C142.656 13.0615 142.117 13.3698 141.809 13.9862C141.501 14.6027 141.346 15.6623 141.346 17.1649V32.6538C141.346 34.5418 141.501 35.794 141.809 36.4104C142.156 37.0269 142.695 37.3351 143.427 37.3351C143.812 37.3351 144.14 37.2774 144.41 37.1618C144.679 37.0076 144.891 36.7572 145.045 36.4104C145.238 36.0637 145.373 35.6013 145.45 35.0234C145.527 34.4069 145.565 33.617 145.565 32.6538Z"/>
</mask>
<path d="M28.8394 39.4735H17.2805V36.0637H19.1877V11.3277L14.6798 39.4735H9.59386L5.37487 10.8075V36.0637H7.39768V39.4735H0V36.0637H1.96501V3.46766H0V0H11.79L14.4486 19.0721L17.2805 0H28.8394V3.46766H26.9322V36.0637H28.8394V39.4735Z" fill="var(--fill-0, black)"/>
<path d="M48.8209 25.1405C48.8209 30.0723 48.0118 33.7904 46.3935 36.2948C44.7753 38.7993 42.3672 40.0515 39.1692 40.0515C36.0098 40.0515 33.6017 38.7993 31.9449 36.2948C30.3267 33.7904 29.5176 30.0723 29.5176 25.1405C29.5176 20.2473 30.3267 16.5484 31.9449 14.044C33.6017 11.5396 36.0098 10.2874 39.1692 10.2874C42.3672 10.2874 44.7753 11.5396 46.3935 14.044C48.0118 16.5099 48.8209 20.2088 48.8209 25.1405ZM41.3076 32.6538V17.7429C41.3076 15.8549 41.1342 14.6027 40.7875 13.9862C40.4792 13.3698 39.9398 13.0615 39.1692 13.0615C38.3986 13.0615 37.8592 13.3698 37.551 13.9862C37.2427 14.6027 37.0886 15.6623 37.0886 17.1649V32.6538C37.0886 34.5418 37.2427 35.794 37.551 36.4104C37.8977 37.0269 38.4372 37.3351 39.1692 37.3351C39.5545 37.3351 39.882 37.2774 40.1517 37.1618C40.4214 37.0076 40.6333 36.7572 40.7875 36.4104C40.9801 36.0637 41.115 35.6013 41.192 35.0234C41.2691 34.4069 41.3076 33.617 41.3076 32.6538Z" fill="var(--fill-0, black)"/>
<path d="M66.436 15.3155C66.436 16.8182 66.1084 18.0126 65.4534 18.8988C64.7984 19.7849 63.9123 20.228 62.7949 20.228C61.8317 20.228 61.0418 19.9198 60.4253 19.3033C59.8474 18.6483 59.5584 17.7621 59.5584 16.6448C59.5584 16.1054 59.6162 15.6045 59.7318 15.1421C59.8474 14.6798 60.0593 14.1211 60.3675 13.4661C59.9052 13.9284 59.5199 14.3523 59.2117 14.7376C58.9034 15.1229 58.653 15.5659 58.4603 16.0668C58.3062 16.5292 58.1906 17.0686 58.1136 17.6851C58.075 18.3015 58.0558 19.0336 58.0558 19.8813V36.3526H60.0786V39.4735H49.1554V36.3526H50.9471V14.044H49.1554V10.9231H57.7668L57.998 12.657C59.3465 11.0773 60.7528 10.2874 62.217 10.2874C63.4884 10.2874 64.5095 10.769 65.2801 11.7323C66.0507 12.657 66.436 13.8514 66.436 15.3155Z" fill="var(--fill-0, black)"/>
<path d="M76.7333 39.4735H66.0413V36.3526H67.8329V3.17869H65.6946V0H74.9417V36.3526H76.7333V39.4735Z" fill="var(--fill-0, black)"/>
<path d="M97.1618 39.4735H88.8972L88.6082 38.0287C87.7991 38.7993 87.1056 39.3194 86.5276 39.5891C85.9882 39.8974 85.3525 40.0515 84.6204 40.0515C82.0774 40.0515 80.151 38.8571 78.841 36.4682C77.5695 34.0794 76.9338 30.5539 76.9338 25.8919C76.9338 20.9216 77.5502 17.0686 78.7832 14.333C80.0161 11.5974 81.7307 10.2296 83.9269 10.2296C84.7745 10.2296 85.5066 10.3645 86.1231 10.6342C86.7395 10.9039 87.4523 11.3662 88.2614 12.0212V3.17869H86.412V0H95.3701V36.3526H97.1618V39.4735ZM88.2614 29.4173V19.6501C88.2614 17.8007 88.1266 16.4714 87.8569 15.6623C87.5872 14.8531 87.1248 14.4486 86.4698 14.4486C86.1231 14.4486 85.7955 14.6027 85.4873 14.9109C85.2176 15.1806 84.9864 15.7008 84.7938 16.4714C84.6397 17.2035 84.5048 18.2245 84.3892 19.5345C84.3122 20.8445 84.2736 22.5398 84.2736 24.6204C84.2736 27.0478 84.3122 29.0128 84.3892 30.5154C84.5048 31.9795 84.6397 33.1354 84.7938 33.9831C84.9864 34.7922 85.2176 35.3316 85.4873 35.6013C85.757 35.871 86.0653 36.0059 86.412 36.0059C86.7973 36.0059 87.1056 35.9096 87.3367 35.7169C87.5679 35.5243 87.7413 35.1775 87.8569 34.6766C88.011 34.1757 88.1073 33.5015 88.1459 32.6538C88.2229 31.8062 88.2614 30.7273 88.2614 29.4173Z" fill="var(--fill-0, black)"/>
<path d="M116.671 25.1405C116.671 30.0723 115.861 33.7904 114.243 36.2948C112.625 38.7993 110.217 40.0515 107.019 40.0515C103.859 40.0515 101.451 38.7993 99.7946 36.2948C98.1763 33.7904 97.3672 30.0723 97.3672 25.1405C97.3672 20.2473 98.1763 16.5484 99.7946 14.044C101.451 11.5396 103.859 10.2874 107.019 10.2874C110.217 10.2874 112.625 11.5396 114.243 14.044C115.861 16.5099 116.671 20.2088 116.671 25.1405ZM109.157 32.6538V17.7429C109.157 15.8549 108.984 14.6027 108.637 13.9862C108.329 13.3698 107.789 13.0615 107.019 13.0615C106.248 13.0615 105.709 13.3698 105.401 13.9862C105.092 14.6027 104.938 15.6623 104.938 17.1649V32.6538C104.938 34.5418 105.092 35.794 105.401 36.4104C105.747 37.0269 106.287 37.3351 107.019 37.3351C107.404 37.3351 107.732 37.2774 108.001 37.1618C108.271 37.0076 108.483 36.7572 108.637 36.4104C108.83 36.0637 108.965 35.6013 109.042 35.0234C109.119 34.4069 109.157 33.617 109.157 32.6538Z" fill="var(--fill-0, black)"/>
<path d="M134.286 15.3155C134.286 16.8182 133.958 18.0126 133.303 18.8988C132.648 19.7849 131.762 20.228 130.645 20.228C129.681 20.228 128.891 19.9198 128.275 19.3033C127.697 18.6483 127.408 17.7621 127.408 16.6448C127.408 16.1054 127.466 15.6045 127.581 15.1421C127.697 14.6798 127.909 14.1211 128.217 13.4661C127.755 13.9284 127.37 14.3523 127.061 14.7376C126.753 15.1229 126.503 15.5659 126.31 16.0668C126.156 16.5292 126.04 17.0686 125.963 17.6851C125.925 18.3015 125.905 19.0336 125.905 19.8813V36.3526H127.928V39.4735H117.005V36.3526H118.797V14.044H117.005V10.9231H125.616L125.848 12.657C127.196 11.0773 128.602 10.2874 130.067 10.2874C131.338 10.2874 132.359 10.769 133.13 11.7323C133.9 12.657 134.286 13.8514 134.286 15.3155Z" fill="var(--fill-0, black)"/>
<path d="M153.079 25.1405C153.079 30.0723 152.27 33.7904 150.651 36.2948C149.033 38.7993 146.625 40.0515 143.427 40.0515C140.268 40.0515 137.86 38.7993 136.203 36.2948C134.585 33.7904 133.775 30.0723 133.775 25.1405C133.775 20.2473 134.585 16.5484 136.203 14.044C137.86 11.5396 140.268 10.2874 143.427 10.2874C146.625 10.2874 149.033 11.5396 150.651 14.044C152.27 16.5099 153.079 20.2088 153.079 25.1405ZM145.565 32.6538V17.7429C145.565 15.8549 145.392 14.6027 145.045 13.9862C144.737 13.3698 144.198 13.0615 143.427 13.0615C142.656 13.0615 142.117 13.3698 141.809 13.9862C141.501 14.6027 141.346 15.6623 141.346 17.1649V32.6538C141.346 34.5418 141.501 35.794 141.809 36.4104C142.156 37.0269 142.695 37.3351 143.427 37.3351C143.812 37.3351 144.14 37.2774 144.41 37.1618C144.679 37.0076 144.891 36.7572 145.045 36.4104C145.238 36.0637 145.373 35.6013 145.45 35.0234C145.527 34.4069 145.565 33.617 145.565 32.6538Z" fill="var(--fill-0, black)"/>
<path d="M28.8394 39.4735H17.2805V36.0637H19.1877V11.3277L14.6798 39.4735H9.59386L5.37487 10.8075V36.0637H7.39768V39.4735H0V36.0637H1.96501V3.46766H0V0H11.79L14.4486 19.0721L17.2805 0H28.8394V3.46766H26.9322V36.0637H28.8394V39.4735Z" stroke="var(--stroke-0, #D6D5DA)" mask="url(#path-1-inside-1_258_431)"/>
<path d="M48.8209 25.1405C48.8209 30.0723 48.0118 33.7904 46.3935 36.2948C44.7753 38.7993 42.3672 40.0515 39.1692 40.0515C36.0098 40.0515 33.6017 38.7993 31.9449 36.2948C30.3267 33.7904 29.5176 30.0723 29.5176 25.1405C29.5176 20.2473 30.3267 16.5484 31.9449 14.044C33.6017 11.5396 36.0098 10.2874 39.1692 10.2874C42.3672 10.2874 44.7753 11.5396 46.3935 14.044C48.0118 16.5099 48.8209 20.2088 48.8209 25.1405ZM41.3076 32.6538V17.7429C41.3076 15.8549 41.1342 14.6027 40.7875 13.9862C40.4792 13.3698 39.9398 13.0615 39.1692 13.0615C38.3986 13.0615 37.8592 13.3698 37.551 13.9862C37.2427 14.6027 37.0886 15.6623 37.0886 17.1649V32.6538C37.0886 34.5418 37.2427 35.794 37.551 36.4104C37.8977 37.0269 38.4372 37.3351 39.1692 37.3351C39.5545 37.3351 39.882 37.2774 40.1517 37.1618C40.4214 37.0076 40.6333 36.7572 40.7875 36.4104C40.9801 36.0637 41.115 35.6013 41.192 35.0234C41.2691 34.4069 41.3076 33.617 41.3076 32.6538Z" stroke="var(--stroke-0, #D6D5DA)" mask="url(#path-1-inside-1_258_431)"/>
<path d="M66.436 15.3155C66.436 16.8182 66.1084 18.0126 65.4534 18.8988C64.7984 19.7849 63.9123 20.228 62.7949 20.228C61.8317 20.228 61.0418 19.9198 60.4253 19.3033C59.8474 18.6483 59.5584 17.7621 59.5584 16.6448C59.5584 16.1054 59.6162 15.6045 59.7318 15.1421C59.8474 14.6798 60.0593 14.1211 60.3675 13.4661C59.9052 13.9284 59.5199 14.3523 59.2117 14.7376C58.9034 15.1229 58.653 15.5659 58.4603 16.0668C58.3062 16.5292 58.1906 17.0686 58.1136 17.6851C58.075 18.3015 58.0558 19.0336 58.0558 19.8813V36.3526H60.0786V39.4735H49.1554V36.3526H50.9471V14.044H49.1554V10.9231H57.7668L57.998 12.657C59.3465 11.0773 60.7528 10.2874 62.217 10.2874C63.4884 10.2874 64.5095 10.769 65.2801 11.7323C66.0507 12.657 66.436 13.8514 66.436 15.3155Z" stroke="var(--stroke-0, #D6D5DA)" mask="url(#path-1-inside-1_258_431)"/>
<path d="M76.7333 39.4735H66.0413V36.3526H67.8329V3.17869H65.6946V0H74.9417V36.3526H76.7333V39.4735Z" stroke="var(--stroke-0, #D6D5DA)" mask="url(#path-1-inside-1_258_431)"/>
<path d="M97.1618 39.4735H88.8972L88.6082 38.0287C87.7991 38.7993 87.1056 39.3194 86.5276 39.5891C85.9882 39.8974 85.3525 40.0515 84.6204 40.0515C82.0774 40.0515 80.151 38.8571 78.841 36.4682C77.5695 34.0794 76.9338 30.5539 76.9338 25.8919C76.9338 20.9216 77.5502 17.0686 78.7832 14.333C80.0161 11.5974 81.7307 10.2296 83.9269 10.2296C84.7745 10.2296 85.5066 10.3645 86.1231 10.6342C86.7395 10.9039 87.4523 11.3662 88.2614 12.0212V3.17869H86.412V0H95.3701V36.3526H97.1618V39.4735ZM88.2614 29.4173V19.6501C88.2614 17.8007 88.1266 16.4714 87.8569 15.6623C87.5872 14.8531 87.1248 14.4486 86.4698 14.4486C86.1231 14.4486 85.7955 14.6027 85.4873 14.9109C85.2176 15.1806 84.9864 15.7008 84.7938 16.4714C84.6397 17.2035 84.5048 18.2245 84.3892 19.5345C84.3122 20.8445 84.2736 22.5398 84.2736 24.6204C84.2736 27.0478 84.3122 29.0128 84.3892 30.5154C84.5048 31.9795 84.6397 33.1354 84.7938 33.9831C84.9864 34.7922 85.2176 35.3316 85.4873 35.6013C85.757 35.871 86.0653 36.0059 86.412 36.0059C86.7973 36.0059 87.1056 35.9096 87.3367 35.7169C87.5679 35.5243 87.7413 35.1775 87.8569 34.6766C88.011 34.1757 88.1073 33.5015 88.1459 32.6538C88.2229 31.8062 88.2614 30.7273 88.2614 29.4173Z" stroke="var(--stroke-0, #D6D5DA)" mask="url(#path-1-inside-1_258_431)"/>
<path d="M116.671 25.1405C116.671 30.0723 115.861 33.7904 114.243 36.2948C112.625 38.7993 110.217 40.0515 107.019 40.0515C103.859 40.0515 101.451 38.7993 99.7946 36.2948C98.1763 33.7904 97.3672 30.0723 97.3672 25.1405C97.3672 20.2473 98.1763 16.5484 99.7946 14.044C101.451 11.5396 103.859 10.2874 107.019 10.2874C110.217 10.2874 112.625 11.5396 114.243 14.044C115.861 16.5099 116.671 20.2088 116.671 25.1405ZM109.157 32.6538V17.7429C109.157 15.8549 108.984 14.6027 108.637 13.9862C108.329 13.3698 107.789 13.0615 107.019 13.0615C106.248 13.0615 105.709 13.3698 105.401 13.9862C105.092 14.6027 104.938 15.6623 104.938 17.1649V32.6538C104.938 34.5418 105.092 35.794 105.401 36.4104C105.747 37.0269 106.287 37.3351 107.019 37.3351C107.404 37.3351 107.732 37.2774 108.001 37.1618C108.271 37.0076 108.483 36.7572 108.637 36.4104C108.83 36.0637 108.965 35.6013 109.042 35.0234C109.119 34.4069 109.157 33.617 109.157 32.6538Z" stroke="var(--stroke-0, #D6D5DA)" mask="url(#path-1-inside-1_258_431)"/>
<path d="M134.286 15.3155C134.286 16.8182 133.958 18.0126 133.303 18.8988C132.648 19.7849 131.762 20.228 130.645 20.228C129.681 20.228 128.891 19.9198 128.275 19.3033C127.697 18.6483 127.408 17.7621 127.408 16.6448C127.408 16.1054 127.466 15.6045 127.581 15.1421C127.697 14.6798 127.909 14.1211 128.217 13.4661C127.755 13.9284 127.37 14.3523 127.061 14.7376C126.753 15.1229 126.503 15.5659 126.31 16.0668C126.156 16.5292 126.04 17.0686 125.963 17.6851C125.925 18.3015 125.905 19.0336 125.905 19.8813V36.3526H127.928V39.4735H117.005V36.3526H118.797V14.044H117.005V10.9231H125.616L125.848 12.657C127.196 11.0773 128.602 10.2874 130.067 10.2874C131.338 10.2874 132.359 10.769 133.13 11.7323C133.9 12.657 134.286 13.8514 134.286 15.3155Z" stroke="var(--stroke-0, #D6D5DA)" mask="url(#path-1-inside-1_258_431)"/>
<path d="M153.079 25.1405C153.079 30.0723 152.27 33.7904 150.651 36.2948C149.033 38.7993 146.625 40.0515 143.427 40.0515C140.268 40.0515 137.86 38.7993 136.203 36.2948C134.585 33.7904 133.775 30.0723 133.775 25.1405C133.775 20.2473 134.585 16.5484 136.203 14.044C137.86 11.5396 140.268 10.2874 143.427 10.2874C146.625 10.2874 149.033 11.5396 150.651 14.044C152.27 16.5099 153.079 20.2088 153.079 25.1405ZM145.565 32.6538V17.7429C145.565 15.8549 145.392 14.6027 145.045 13.9862C144.737 13.3698 144.198 13.0615 143.427 13.0615C142.656 13.0615 142.117 13.3698 141.809 13.9862C141.501 14.6027 141.346 15.6623 141.346 17.1649V32.6538C141.346 34.5418 141.501 35.794 141.809 36.4104C142.156 37.0269 142.695 37.3351 143.427 37.3351C143.812 37.3351 144.14 37.2774 144.41 37.1618C144.679 37.0076 144.891 36.7572 145.045 36.4104C145.238 36.0637 145.373 35.6013 145.45 35.0234C145.527 34.4069 145.565 33.617 145.565 32.6538Z" stroke="var(--stroke-0, #D6D5DA)" mask="url(#path-1-inside-1_258_431)"/>
</g>
</svg>
