<svg preserveAspectRatio="xMidYMid meet" width="17.6927" height="21" overflow="visible" style="display: block;" viewBox="0 0 17.6927 21" fill="none" xmlns="http://www.w3.org/2000/svg">
<path id="Vector" d="M14.7414 20.1575C13.5982 21.2656 12.35 21.0907 11.1485 20.5657C9.87701 20.0291 8.71049 20.0058 7.36899 20.5657C5.68921 21.289 4.80265 21.079 3.79945 20.1575C-1.89317 14.2899 -1.05328 5.35432 5.40924 5.0277C6.98404 5.10935 8.08057 5.89092 9.00212 5.96091C10.3786 5.68095 11.6968 4.87605 13.1666 4.98104C14.928 5.12102 16.2579 5.82093 17.1328 7.08077C13.4932 9.26216 14.3564 14.0566 17.6927 15.3981C17.0278 17.1478 16.1646 18.886 14.7297 20.1691L14.7414 20.1575ZM8.88547 4.95771C8.71049 2.35637 10.8219 0.209974 13.2483 0C13.5865 3.00962 10.5186 5.24934 8.88547 4.95771Z" fill="var(--fill-0, black)"/>
</svg>
