<svg preserveAspectRatio="xMidYMid meet" width="12.8881" height="15.0021" overflow="visible" style="display: block;" viewBox="0 0 12.8881 15.0021" fill="none" xmlns="http://www.w3.org/2000/svg">
<g id="Group 3806">
<path id="Vector" d="M2.55047 4.59148C2.4724 5.35148 2.41761 6.69648 2.90933 7.26898C2.90933 7.26898 2.67785 5.79148 4.75292 3.93773C5.58842 3.19148 5.78155 2.17648 5.48981 1.41523C5.32407 0.983982 5.02138 0.627732 4.7584 0.378982C4.60499 0.232732 4.72278 -0.00851843 4.94604 0.000231571C6.29655 0.0552316 8.4853 0.397731 9.41531 2.52773C9.82348 3.46273 9.85361 4.42898 9.65911 5.41148C9.53584 6.03898 9.09755 7.43398 10.0974 7.60523C10.811 7.72773 11.1562 7.21023 11.3109 6.83773C11.3753 6.68273 11.5986 6.64398 11.7191 6.76773C12.9244 8.01898 13.0272 9.49273 12.7779 10.7615C12.2957 13.214 9.57419 14.999 6.87044 14.999C3.49281 14.999 0.804128 13.2352 0.106961 10.0427C-0.173824 8.75398 -0.0313769 6.20398 2.14642 4.40398C2.30804 4.26898 2.57239 4.38898 2.55047 4.59148Z" fill="url(#paint0_radial_300_114)"/>
<path id="Vector_2" d="M8.10453 9.17959C6.85949 7.71709 7.41695 6.04834 7.72239 5.38334C7.76348 5.29584 7.65391 5.21334 7.56762 5.26709C7.03207 5.59959 5.93496 6.38209 5.42407 7.48334C4.73238 8.97209 4.78169 9.70084 5.19122 10.5908C5.43776 11.1271 5.1515 11.2408 5.00768 11.2608C4.86798 11.2808 4.73923 11.1958 4.6365 11.1071C4.34103 10.8481 4.13045 10.5192 4.02836 10.1571C4.00645 10.0796 3.8955 10.0583 3.84482 10.1221C3.46131 10.6058 3.26271 11.3821 3.25312 11.9308C3.22299 13.6271 4.7584 15.0021 6.61569 15.0021C8.95647 15.0021 10.6617 12.6396 9.3167 10.6646C8.92634 10.0896 8.55927 9.71334 8.10453 9.17959Z" fill="url(#paint1_radial_300_114)"/>
</g>
<defs>
<radialGradient id="paint0_radial_300_114" cx="0" cy="0" r="1" gradientTransform="matrix(-9.66817 -0.0382934 -0.068934 14.4774 6.20146 15.0378)" gradientUnits="userSpaceOnUse">
<stop offset="0.314" stop-color="#FF9800"/>
<stop offset="0.662" stop-color="#FF6D00"/>
<stop offset="0.972" stop-color="#F44336"/>
</radialGradient>
<radialGradient id="paint1_radial_300_114" cx="0" cy="0" r="1" gradientTransform="matrix(-0.102176 9.23158 7.61264 0.070167 6.74443 6.25939)" gradientUnits="userSpaceOnUse">
<stop offset="0.214" stop-color="#FFF176"/>
<stop offset="0.328" stop-color="#FFF27D"/>
<stop offset="0.487" stop-color="#FFF48F"/>
<stop offset="0.672" stop-color="#FFF7AD"/>
<stop offset="0.793" stop-color="#FFF9C4"/>
<stop offset="0.822" stop-color="#FFF8BD" stop-opacity="0.804"/>
<stop offset="0.863" stop-color="#FFF6AB" stop-opacity="0.529"/>
<stop offset="0.91" stop-color="#FFF38D" stop-opacity="0.209"/>
<stop offset="0.941" stop-color="#FFF176" stop-opacity="0"/>
</radialGradient>
</defs>
</svg>
