<svg preserveAspectRatio="xMidYMid meet" width="63.0783" height="20.3694" overflow="visible" style="display: block;" viewBox="0 0 63.0783 20.3694" fill="none" xmlns="http://www.w3.org/2000/svg">
<g id="visa logo">
<path id="Vector" d="M32.6226 6.51185C32.5866 9.34939 35.1514 10.9328 37.0834 11.8742C39.0684 12.8401 39.7352 13.4596 39.7273 14.3235C39.7125 15.6454 38.1439 16.2289 36.6761 16.2515C34.1153 16.2912 32.6263 15.5601 31.4426 15.0072L30.5201 19.3239C31.7077 19.8712 33.9068 20.3484 36.1872 20.3694C41.5403 20.3694 45.0424 17.727 45.0613 13.6301C45.0823 8.43057 37.8694 8.14277 37.9187 5.81873C37.9357 5.11403 38.6081 4.36202 40.0816 4.17081C40.8109 4.07422 42.8243 4.0003 45.1069 5.05144L46.0028 0.874967C44.7753 0.427998 43.1976 5.85661e-07 41.2333 5.85661e-07C36.1949 5.85661e-07 32.6512 2.67837 32.6226 6.51185ZM54.6115 0.359744C53.6341 0.359744 52.8104 0.929912 52.4427 1.80488L44.7962 20.0626H50.1453L51.2097 17.1208H57.7462L58.3637 20.0626H63.0783L58.9642 0.359744H54.6115ZM55.3599 5.68222L56.9036 13.0809H52.6758L55.3599 5.68222ZM26.1371 0.35999L21.9207 20.0624H27.018L31.2324 0.359498L26.1371 0.35999ZM18.5965 0.35999L13.291 13.7703L11.1449 2.36766C10.8931 1.09475 9.89862 0.359744 8.79425 0.359744H0.121475L0 0.931884C1.78048 1.31824 3.80343 1.94138 5.02902 2.60814C5.77906 3.01544 5.99293 3.37149 6.23933 4.33935L10.3042 20.0626H15.6907L23.9491 0.359744L18.5965 0.35999Z" fill="url(#paint0_linear_300_118)"/>
</g>
<defs>
<linearGradient id="paint0_linear_300_118" x1="28.9996" y1="20.778" x2="29.5892" y2="-0.141662" gradientUnits="userSpaceOnUse">
<stop stop-color="#222357"/>
<stop offset="1" stop-color="#254AA5"/>
</linearGradient>
</defs>
</svg>
