<svg preserveAspectRatio="xMidYMid meet" width="39.2883" height="30.487" overflow="visible" style="display: block;" viewBox="0 0 39.2883 30.487" fill="none" xmlns="http://www.w3.org/2000/svg">
<g id="mastercard logo">
<path id="Vector" d="M7.1495 30.4194V28.3961C7.1495 27.6203 6.67727 27.1146 5.86783 27.1146C5.46319 27.1146 5.02475 27.2494 4.7212 27.6879C4.48523 27.3169 4.14803 27.1146 3.64215 27.1146C3.3048 27.1146 2.96775 27.2156 2.69784 27.5866V27.182H1.98964V30.4194H2.69784V28.632C2.69784 28.0589 3.0014 27.789 3.47363 27.789C3.94556 27.789 4.18183 28.0925 4.18183 28.632V30.4194H4.89003V28.632C4.89003 28.0589 5.22707 27.789 5.66551 27.789C6.13775 27.789 6.37371 28.0925 6.37371 28.632V30.4194H7.1495ZM17.6374 27.182H16.491V26.204H15.7828V27.182H15.142V27.8226H15.7826V29.3066C15.7826 30.0486 16.0862 30.4869 16.8956 30.4869C17.1992 30.4869 17.5362 30.3858 17.7725 30.2509L17.57 29.6438C17.3677 29.7787 17.1317 29.8125 16.963 29.8125C16.6258 29.8125 16.491 29.6102 16.491 29.2728V27.8226H17.6374V27.182ZM23.6404 27.1144C23.2357 27.1144 22.966 27.3169 22.7973 27.5866V27.182H22.0891V30.4194H22.7973V28.5984C22.7973 28.0589 23.0333 27.7553 23.4717 27.7553C23.6066 27.7553 23.7753 27.7891 23.9101 27.8228L24.1125 27.1484C23.9776 27.1146 23.7753 27.1146 23.6404 27.1146M14.5687 27.4519C14.2313 27.2158 13.7592 27.1147 13.2534 27.1147C12.4441 27.1147 11.9046 27.5194 11.9046 28.1601C11.9046 28.6998 12.3092 29.0032 13.0174 29.1044L13.3546 29.1382C13.7256 29.2055 13.9279 29.3067 13.9279 29.4754C13.9279 29.7114 13.6582 29.8801 13.1859 29.8801C12.7137 29.8801 12.3429 29.7114 12.1067 29.5429L11.7695 30.0824C12.1405 30.3521 12.6464 30.487 13.1521 30.487C14.0964 30.487 14.6361 30.0487 14.6361 29.4416C14.6361 28.8683 14.1977 28.5648 13.5231 28.4637L13.1859 28.4299C12.8824 28.3961 12.6464 28.3288 12.6464 28.1265C12.6464 27.8904 12.8824 27.7555 13.2534 27.7555C13.6582 27.7555 14.0628 27.924 14.2651 28.0252L14.5687 27.4519ZM33.3866 27.1147C32.9818 27.1147 32.7121 27.317 32.5434 27.5868V27.1822H31.8352V30.4196H32.5434V28.5986C32.5434 28.059 32.7795 27.7555 33.2178 27.7555C33.3528 27.7555 33.5215 27.7893 33.6564 27.8229L33.8587 27.1485C33.7238 27.1147 33.5215 27.1147 33.3866 27.1147ZM24.3486 28.8009C24.3486 29.7788 25.023 30.487 26.0685 30.487C26.5406 30.487 26.8778 30.3859 27.215 30.1162L26.8778 29.5429C26.6081 29.7452 26.3383 29.8463 26.0347 29.8463C25.4614 29.8463 25.0568 29.4416 25.0568 28.8009C25.0568 28.1939 25.4614 27.7891 26.0347 27.7555C26.3383 27.7555 26.6081 27.8566 26.8778 28.059L27.215 27.4857C26.8778 27.2158 26.5406 27.1147 26.0685 27.1147C25.023 27.1147 24.3486 27.8229 24.3486 28.8009ZM30.891 28.8009V27.1822H30.1828V27.5868C29.9467 27.2834 29.6095 27.1147 29.1711 27.1147C28.2606 27.1147 27.5524 27.8229 27.5524 28.8009C27.5524 29.7788 28.2606 30.487 29.1711 30.487C29.6432 30.487 29.9805 30.3185 30.1828 30.0149V30.4196H30.891V28.8009ZM28.2942 28.8009C28.2942 28.2276 28.6652 27.7555 29.2722 27.7555C29.8455 27.7555 30.2503 28.1939 30.2503 28.8009C30.2503 29.3742 29.8455 29.8463 29.2722 29.8463C28.6652 29.8125 28.2942 29.3742 28.2942 28.8009ZM19.8296 27.1147C18.8853 27.1147 18.2108 27.7891 18.2108 28.8009C18.2108 29.8126 18.8852 30.487 19.8633 30.487C20.3354 30.487 20.8076 30.3521 21.1786 30.0487L20.8412 29.5429C20.5715 29.7452 20.2343 29.8801 19.8971 29.8801C19.4586 29.8801 19.0202 29.6777 18.919 29.1043H21.3135V28.8347C21.3473 27.7891 20.7403 27.1147 19.8296 27.1147ZM19.8295 27.7217C20.2678 27.7217 20.5715 27.9916 20.6388 28.4975H18.9526C19.02 28.059 19.3236 27.7217 19.8295 27.7217ZM37.3995 28.8009V25.9006H36.6914V27.5868C36.4552 27.2834 36.118 27.1147 35.6796 27.1147C34.7691 27.1147 34.0609 27.8229 34.0609 28.8009C34.0609 29.7788 34.7691 30.487 35.6796 30.487C36.1518 30.487 36.489 30.3185 36.6914 30.0149V30.4196H37.3995V28.8009ZM34.8029 28.8009C34.8029 28.2276 35.1737 27.7555 35.7808 27.7555C36.3541 27.7555 36.7588 28.1939 36.7588 28.8009C36.7588 29.3742 36.3541 29.8463 35.7808 29.8463C35.1737 29.8125 34.8029 29.3742 34.8029 28.8009ZM11.1286 28.8009V27.1822H10.4204V27.5868C10.1843 27.2834 9.84711 27.1147 9.40867 27.1147C8.49815 27.1147 7.78995 27.8229 7.78995 28.8009C7.78995 29.7788 8.49815 30.487 9.40867 30.487C9.8809 30.487 10.2181 30.3185 10.4204 30.0149V30.4196H11.1286V28.8009ZM8.49815 28.8009C8.49815 28.2276 8.86915 27.7555 9.47611 27.7555C10.0494 27.7555 10.4542 28.1939 10.4542 28.8009C10.4542 29.3742 10.0494 29.8463 9.47611 29.8463C8.86915 29.8125 8.49815 29.3742 8.49815 28.8009Z" fill="var(--fill-0, black)"/>
<path id="Vector_2" d="M14.3322 2.59679H24.9552V21.6845H14.3322V2.59679Z" fill="var(--fill-0, #FF5F00)"/>
<path id="Vector_3" d="M15.0072 12.1406C15.0072 8.26241 16.8282 4.82251 19.6272 2.59668C17.5702 0.977959 14.9736 0 12.1408 0C5.42947 0 0 5.42947 0 12.1406C0 18.8517 5.42947 24.2812 12.1406 24.2812C14.9734 24.2812 17.5701 23.3033 19.6272 21.6844C16.8282 19.4923 15.0072 16.0188 15.0072 12.1406Z" fill="var(--fill-0, #EB001B)"/>
<path id="Vector_4" d="M39.2882 12.1406C39.2882 18.8516 33.8587 24.2812 27.1476 24.2812C24.3148 24.2812 21.7181 23.3033 19.6609 21.6844C22.4937 19.4587 24.2811 16.0188 24.2811 12.1406C24.2811 8.26241 22.4599 4.82251 19.6609 2.59668C21.7179 0.977959 24.3148 0 27.1476 0C33.8587 0 39.2882 5.46327 39.2882 12.1406Z" fill="var(--fill-0, #F79E1B)"/>
</g>
</svg>
