<svg preserveAspectRatio="xMidYMid meet" width="23" height="23" overflow="visible" style="display: block;" viewBox="0 0 23 23" fill="none" xmlns="http://www.w3.org/2000/svg">
<g id="Group 3807">
<path id="Vector" d="M22.7763 9.24772H21.85V9.2H11.5V13.8H17.9992C17.0511 16.4778 14.5032 18.4 11.5 18.4C7.68947 18.4 4.6 15.3105 4.6 11.5C4.6 7.68947 7.68947 4.6 11.5 4.6C13.2589 4.6 14.8591 5.26355 16.0776 6.34742L19.3303 3.09465C17.2764 1.18047 14.5291 0 11.5 0C5.14912 0 0 5.14912 0 11.5C0 17.8509 5.14912 23 11.5 23C17.8509 23 23 17.8509 23 11.5C23 10.7289 22.9206 9.97625 22.7763 9.24772Z" fill="var(--fill-0, #FFC107)"/>
<path id="Vector_2" d="M1.32609 6.14732L5.10442 8.91825C6.12677 6.3871 8.60272 4.6 11.5001 4.6C13.2591 4.6 14.8593 5.26355 16.0777 6.34742L19.3305 3.09465C17.2766 1.18047 14.5292 0 11.5001 0C7.08299 0 3.25234 2.49377 1.32609 6.14732Z" fill="var(--fill-0, #FF3D00)"/>
<path id="Vector_3" d="M11.5 22.9977C14.4704 22.9977 17.1695 21.8609 19.2101 20.0123L15.6509 17.0004C14.4577 17.9084 12.9993 18.3993 11.5 18.3977C8.50881 18.3977 5.96903 16.4904 5.01223 13.8287L1.26208 16.7181C3.16533 20.4424 7.03048 22.9977 11.5 22.9977Z" fill="var(--fill-0, #4CAF50)"/>
<path id="Vector_4" d="M22.7763 9.24772H21.85V9.2H11.5V13.8H17.9992C17.5457 15.0744 16.7287 16.1881 15.6492 17.0033L15.6509 17.0022L19.2102 20.014C18.9583 20.2429 23 17.25 23 11.5C23 10.7289 22.9206 9.97625 22.7763 9.24772Z" fill="var(--fill-0, #1976D2)"/>
</g>
</svg>
