<svg preserveAspectRatio="none" width="100%" height="100%" overflow="visible" style="display: block;" viewBox="0 0 19 19" fill="none" xmlns="http://www.w3.org/2000/svg">
<g id="Group 17">
<path id="Vector" d="M18.9683 8.62708C18.8612 8.1782 18.5487 7.94401 18.0399 7.94401C17.4954 7.94401 16.9509 7.94401 16.4153 7.94401C16.451 7.24142 16.3885 6.54859 16.2457 5.85576C15.2191 0.849826 9.75609 -1.62875 5.82841 1.17184C3.56999 2.77218 2.48988 5.04583 2.57915 7.94401C2.0257 7.94401 1.48118 7.94401 0.927736 7.93425C0.320731 7.92449 -0.179155 8.49046 0.0618615 9.22233C1.03485 12.2474 1.99892 15.2626 2.97192 18.2877C3.13259 18.7951 3.41824 19 3.9092 19C5.77485 19 7.6405 19 9.49722 19C11.3718 19 13.2374 19 15.112 19C15.5762 19 15.8618 18.7853 16.0225 18.3072C16.9955 15.2821 17.9685 12.2474 18.9415 9.22233C19.004 9.02716 19.0218 8.82224 18.9683 8.62708ZM10.5952 7.94401C10.5595 7.94401 10.5327 7.94401 10.5148 7.94401H8.55101C8.52423 7.94401 8.48852 7.94401 8.44389 7.94401H7.70298C6.50683 7.94401 5.3196 7.94401 4.12344 7.94401C4.05203 6.58762 4.3466 5.32882 5.08751 4.21639C6.31044 2.38186 7.97971 1.55241 10.0328 1.73782C12.443 1.9525 14.4961 4.11881 14.8174 6.734C14.871 7.13408 14.871 7.54392 14.8621 7.94401C13.4428 7.94401 12.0234 7.94401 10.5952 7.94401Z" fill="var(--fill-0, black)"/>
</g>
</svg>
