<svg preserveAspectRatio="none" width="100%" height="100%" overflow="visible" style="display: block;" viewBox="0 0 20 23.3182" fill="none" xmlns="http://www.w3.org/2000/svg">
<path id="Vector" d="M10.504 0.0166597C11.7534 -1.55156e-08 13.0029 0.0166597 14.2524 0C14.3357 1.48272 14.8521 2.99875 15.935 4.04831C17.0012 5.1312 18.5173 5.61433 20 5.78092V9.69596C18.6172 9.64598 17.2345 9.36277 15.9683 8.76302C15.4186 8.51312 14.9188 8.19658 14.419 7.86339C14.419 10.6955 14.419 13.5444 14.4023 16.3598C14.3357 17.7259 13.8859 19.0754 13.1029 20.1916C11.8534 22.0575 9.67097 23.2736 7.43857 23.307C6.07247 23.3903 4.68971 23.0071 3.52353 22.3074C1.591 21.1579 0.224906 19.0254 0.0249896 16.7597C-0.00832986 16.2766 -0.00832986 15.7934 0.0249896 15.3103C0.191587 13.4611 1.10787 11.6951 2.50729 10.4956C4.08996 9.09621 6.32237 8.42982 8.40483 8.82965C8.42149 10.2624 8.37151 11.7118 8.37151 13.1445C7.42191 12.828 6.30571 12.9279 5.47272 13.511C4.85631 13.9109 4.4065 14.5106 4.1566 15.2103C3.95668 15.7101 4.00666 16.2432 4.02332 16.7763C4.25656 18.3757 5.77259 19.7085 7.37193 19.5585C8.43815 19.5585 9.47105 18.9088 10.0208 17.9925C10.2041 17.676 10.404 17.3428 10.4207 16.9596C10.5206 15.227 10.4706 13.4944 10.4873 11.7451C10.4873 7.83007 10.4873 3.91504 10.504 0.0166597Z" fill="var(--fill-0, #353535)"/>
</svg>
